<?xml version="1.0" encoding="UTF-8" standalone="no"?>
<svg width="400px" height="400px" viewBox="0 0 400 400" version="1.1" xmlns="http://www.w3.org/2000/svg" xmlns:xlink="http://www.w3.org/1999/xlink">
    <defs></defs>
    <g id="Page-1" stroke="none" stroke-width="1" fill="none" fill-rule="evenodd">
        <g id="sprites">
            <g id="icons-social" transform="translate(6.000000, 6.000000)" fill="#0E7AFE">
                <path d="M70,7.07792843 C68.8232064,7.60035563 67.5574019,7.95287842 66.2291742,8.11122472 C67.5839896,7.2986886 68.6255328,6.01226939 69.1156708,4.47966215 C67.8475544,5.23209602 66.4418756,5.77763948 64.9471859,6.07237164 C63.7495846,4.79635475 62.0433495,4 60.1556246,4 C56.530453,4 53.590781,6.93923094 53.590781,10.5638586 C53.590781,11.0781952 53.6485803,11.5798177 53.7607109,12.0594799 C48.3044578,11.7855523 43.466657,9.1722605 40.2287407,5.20088909 C39.6634636,6.17061569 39.3397876,7.29753279 39.3397876,8.5007335 C39.3397876,10.7776839 40.4992414,12.7876417 42.2598078,13.9642587 C41.183585,13.9307402 40.1709414,13.6348522 39.2866122,13.1436319 C39.2854563,13.1713714 39.2854563,13.1991109 39.2854563,13.2256946 C39.2854563,16.4064903 41.5488765,19.0590798 44.5521277,19.6624139 C44.0018785,19.8126695 43.4215736,19.8924205 42.8227729,19.8924205 C42.3996821,19.8924205 41.9881511,19.8508113 41.5870241,19.7745277 C42.4228018,22.3820405 44.8469041,24.2798844 47.7195289,24.3330518 C45.4722925,26.0933541 42.6424391,27.1428317 39.5663608,27.1428317 C39.0369193,27.1428317 38.5144137,27.1116248 38,27.0503667 C40.9049924,28.9135363 44.3556101,30 48.0640127,30 C60.1394408,30 66.7424319,19.9975995 66.7424319,11.3232274 C66.7424319,11.0388975 66.736652,10.7557235 66.7239361,10.4737053 C68.0070804,9.55021116 69.1202948,8.39439876 70,7.07792843 L70,7.07792843 Z" id="icon_twitter"></path>
                <g id="icon_github" transform="translate(77.000000, 2.000000)">
                    <path d="M33.561,13.215 L33.586,13.092 C30.821,12.539 27.984,12.534 26.268,12.605 C26.55,11.589 26.635,10.42 26.635,9.117 C26.635,7.248 25.933,5.752 24.792,4.614 C24.991,3.971 25.257,2.542 24.526,0.714 C24.526,0.714 23.236,0.304 20.318,2.257 C19.175,1.971 17.959,1.83 16.74,1.83 C15.4,1.83 14.045,2.001 12.782,2.347 C9.771,0.292 8.441,0.713 8.441,0.713 C7.573,2.883 8.11,4.489 8.273,4.888 C7.253,5.989 6.63,7.393 6.63,9.116 C6.63,10.416 6.778,11.583 7.14,12.597 C5.409,12.534 2.675,12.558 0.01,13.091 L0.035,13.214 C2.717,12.678 5.467,12.659 7.188,12.724 C7.268,12.934 7.356,13.138 7.456,13.334 C5.755,13.389 2.85,13.606 0.066,14.391 L0.1,14.512 C2.906,13.721 5.836,13.509 7.521,13.458 C8.537,15.353 10.541,16.576 14.107,16.961 C13.601,17.301 13.085,17.879 12.876,18.857 C12.186,19.187 10.004,19.992 8.694,17.739 C8.694,17.739 7.961,16.399 6.558,16.294 C6.558,16.294 5.197,16.273 6.464,17.142 C6.464,17.142 7.375,17.571 8.003,19.184 C8.003,19.184 8.823,21.935 12.779,21.052 L12.779,23.894 C12.779,23.894 12.695,24.899 11.774,25.234 C11.774,25.234 11.23,25.611 11.816,25.82 C11.816,25.82 14.37,26.029 14.37,23.936 L14.37,20.837 C14.37,20.837 14.269,19.608 14.872,19.181 L14.872,24.271 C14.872,24.271 14.83,25.485 14.202,25.946 C14.202,25.946 13.783,26.7 14.704,26.49 C14.704,26.49 16.463,26.239 16.546,24.187 L16.586,19.036 L17.009,19.036 L17.049,24.187 C17.133,26.239 18.891,26.49 18.891,26.49 C19.812,26.699 19.393,25.946 19.393,25.946 C18.765,25.485 18.723,24.271 18.723,24.271 L18.723,19.225 C19.326,19.695 19.225,20.837 19.225,20.837 L19.225,23.936 C19.225,26.03 21.779,25.82 21.779,25.82 C22.365,25.611 21.821,25.234 21.821,25.234 C20.9,24.899 20.816,23.894 20.816,23.894 L20.816,19.832 C20.816,18.248 20.149,17.409 19.497,16.967 C23.299,16.59 25.124,15.362 25.965,13.455 C27.63,13.501 30.628,13.704 33.494,14.512 L33.528,14.391 C30.678,13.587 27.7,13.379 26.018,13.33 C26.098,13.137 26.167,12.937 26.229,12.731 C27.936,12.66 30.786,12.66 33.561,13.215 L33.561,13.215 Z M6.893,16.819 C6.743,16.819 6.621,16.735 6.621,16.631 C6.621,16.527 6.743,16.442 6.893,16.442 C7.043,16.442 7.165,16.526 7.165,16.631 C7.165,16.734 7.043,16.819 6.893,16.819 L6.893,16.819 Z M7.375,17.049 C7.375,16.945 7.497,16.861 7.647,16.861 C7.797,16.861 7.919,16.945 7.919,17.049 C7.919,17.153 7.797,17.238 7.647,17.238 C7.497,17.238 7.375,17.153 7.375,17.049 L7.375,17.049 Z M7.836,17.594 C7.836,17.49 7.958,17.405 8.108,17.405 C8.258,17.405 8.38,17.489 8.38,17.594 C8.38,17.698 8.258,17.782 8.108,17.782 C7.957,17.782 7.836,17.698 7.836,17.594 L7.836,17.594 Z M8.527,18.411 C8.377,18.411 8.255,18.327 8.255,18.222 C8.255,18.118 8.377,18.033 8.527,18.033 C8.677,18.033 8.799,18.117 8.799,18.222 C8.799,18.326 8.677,18.411 8.527,18.411 L8.527,18.411 Z M8.987,18.997 C8.837,18.997 8.715,18.913 8.715,18.809 C8.715,18.705 8.837,18.62 8.987,18.62 C9.137,18.62 9.259,18.704 9.259,18.809 C9.26,18.912 9.138,18.997 8.987,18.997 L8.987,18.997 Z M9.616,19.499 C9.466,19.499 9.344,19.415 9.344,19.31 C9.344,19.206 9.466,19.122 9.616,19.122 C9.766,19.122 9.888,19.206 9.888,19.31 C9.888,19.415 9.766,19.499 9.616,19.499 L9.616,19.499 Z M10.495,19.834 C10.345,19.834 10.223,19.75 10.223,19.646 C10.223,19.542 10.345,19.457 10.495,19.457 C10.645,19.457 10.767,19.541 10.767,19.646 C10.767,19.75 10.646,19.834 10.495,19.834 L10.495,19.834 Z M11.371,19.834 C11.221,19.834 11.099,19.75 11.099,19.646 C11.099,19.542 11.221,19.457 11.371,19.457 C11.521,19.457 11.643,19.541 11.643,19.646 C11.643,19.75 11.521,19.834 11.371,19.834 L11.371,19.834 Z M12.259,19.689 C12.109,19.689 11.987,19.605 11.987,19.5 C11.987,19.396 12.109,19.311 12.259,19.311 C12.409,19.311 12.531,19.395 12.531,19.5 C12.531,19.604 12.409,19.689 12.259,19.689 L12.259,19.689 Z M16.71,16.261 C12.565,16.261 9.206,15.637 9.206,11.632 C9.206,10.673 9.678,9.783 10.487,9.044 C11.836,7.813 14.12,8.465 16.71,8.465 C19.29,8.465 21.565,7.806 22.916,9.029 C23.735,9.771 24.214,10.667 24.214,11.632 C24.214,16.139 20.854,16.261 16.71,16.261 L16.71,16.261 Z" id="Shape"></path>
                    <ellipse id="Oval" cx="12.673" cy="11.889" rx="1.041" ry="1.498"></ellipse>
                    <ellipse id="Oval" cx="21.049" cy="11.889" rx="1.041" ry="1.498"></ellipse>
                    <circle id="Oval" cx="16.732" cy="13.858" r="0.39"></circle>
                    <path d="M17.559,14.685 C17.494,14.662 17.422,14.696 17.399,14.761 C17.298,15.045 17.029,15.235 16.729,15.235 C16.429,15.235 16.16,15.044 16.059,14.761 C16.036,14.696 15.964,14.662 15.899,14.685 C15.834,14.708 15.799,14.78 15.822,14.845 C15.958,15.229 16.322,15.486 16.728,15.486 C17.134,15.486 17.499,15.228 17.634,14.845 C17.658,14.779 17.624,14.708 17.559,14.685 L17.559,14.685 Z" id="Shape"></path>
                </g>
                <path d="M134,30 C126.280324,30 120,23.7192982 120,16 C120,8.28070175 126.280324,2 134,2 C141.719676,2 148,8.28070175 148,16 C148,23.7192982 141.719676,30 134,30 L134,30 Z M145.807561,17.9160021 C145.398136,17.7873472 142.105766,16.804891 138.35836,17.404572 C139.922873,21.702286 140.559285,25.2036151 140.681264,25.9308878 C143.3648,24.1169591 145.275097,21.2440191 145.807561,17.9160021 L145.807561,17.9160021 Z M138.671263,27.02605 C138.493068,25.9766082 137.799379,22.3200425 136.120312,17.9574694 C136.093795,17.9659755 136.067278,17.9744817 136.041821,17.984051 C129.296916,20.333865 126.875369,25.0122275 126.66005,25.4513557 C128.688082,27.0324296 131.235851,27.9755449 134,27.9755449 C135.656792,27.9766082 137.236154,27.6374269 138.671263,27.02605 L138.671263,27.02605 Z M125.116751,24.0138224 C125.387226,23.5502392 128.670051,18.1158958 134.836882,16.1222754 C134.992802,16.072302 135.149784,16.0244551 135.307826,15.979798 C135.007652,15.3003721 134.680961,14.619883 134.338359,13.9500266 C128.366694,15.7373737 122.571104,15.6629452 122.048185,15.6523126 C122.045003,15.7735247 122.041821,15.8958001 122.041821,16.0180755 C122.041821,19.0898458 123.206455,21.8936736 125.116751,24.0138224 L125.116751,24.0138224 Z M122.294265,13.569378 C122.828851,13.5768208 127.755739,13.5980861 133.349799,12.112706 C131.368437,8.59011164 129.231154,5.62892079 128.91613,5.19723551 C125.570725,6.77405635 123.069626,9.85858586 122.294265,13.569378 L122.294265,13.569378 Z M131.197666,4.3923445 C131.528601,4.83466241 133.699826,7.79266348 135.659974,11.3928761 C139.912266,9.79904306 141.712251,7.37905369 141.92757,7.0728336 C139.815744,5.19936204 137.038867,4.0595428 134,4.0595428 C133.035836,4.06060606 132.097129,4.1754386 131.197666,4.3923445 L131.197666,4.3923445 Z M143.25661,8.45614035 C143.004167,8.79744817 141.00053,11.3662945 136.579589,13.1717172 C136.857489,13.7416268 137.124782,14.3211058 137.372983,14.9037746 C137.46102,15.1100478 137.546935,15.3163211 137.63073,15.5204678 C141.609364,15.0196704 145.563603,15.8224349 145.957118,15.9053695 C145.930601,13.082403 144.922949,10.4912281 143.25661,8.45614035 L143.25661,8.45614035 Z" id="icon_dribbble"></path>
                <path d="M27.8719122,13.6591755 L14.3340752,0.137210602 C14.1516657,-0.0457368672 13.8562052,-0.0457368672 13.6737499,0.137210602 L0.135455364,13.6591755 C-0.0469999547,13.8421229 -0.043294117,14.1341141 0.135455364,14.319447 C0.226911779,14.4139485 0.346367857,14.4621167 0.464908913,14.46308 L0.464908913,14.4649609 L3.73341204,14.4649609 L3.73341204,27.5329977 C3.73341204,27.6621344 3.78565977,27.7777381 3.87011627,27.8619637 C3.95457277,27.9471067 4.07123803,28 4.20002733,28 L10.733282,28 C10.9908606,28 11.199943,27.7903995 11.199943,27.5329977 L11.199943,18.1998784 L16.7999214,18.1998784 L16.7999214,27.5329977 C16.7999214,27.7898948 17.0089581,28 17.2665824,28 L23.7998371,28 C24.0574157,28 24.2664981,27.7903995 24.2664981,27.5329977 L24.2664981,14.4649609 L27.5559552,14.4649609 C27.6782479,14.4673005 27.7934491,14.4190864 27.8718665,14.3199058 C28.030577,14.1163606 28.0544133,13.8421229 27.8719122,13.6591755 L27.8719122,13.6591755 Z" id="icon_home"></path>
                <g id="icon_artstation" transform="translate(42.000000, 44.000000)">
                    <path d="M0,17.48 L2.05118622,21.478518 L2.05187492,21.4790357 C2.45568428,22.3809999 3.2844232,23 4.24171996,23 L17.8571429,23 L15.0320844,17.48 L0,17.48" id="Fill-1-Copy-2"></path>
                    <path d="M25,17.7767742 C25,17.2485161 24.8514313,16.7571075 24.5965734,16.3443441 L16.3886845,1.40473118 C15.9649448,0.569064516 15.1257325,0 14.1589731,0 L9.82142857,0 L22.4996054,23 L24.4980787,19.3758925 C24.8922936,18.6816882 25,18.3745269 25,17.7767742" id="Fill-2-Copy"></path>
                    <path d="M13.3928571,13.8 L7.58928571,3.68 L1.78571429,13.8 L13.3928571,13.8" id="Fill-3-Copy"></path>
                </g>
                <path d="M13.9257143,42 C6.78701863,42 1,47.7512963 1,54.8459259 C1,61.9405556 6.78701863,67.6918519 13.9257143,67.6918519 C21.0644099,67.6918519 26.8514286,61.9405556 26.8514286,54.8459259 C26.8514286,47.7512963 21.0644099,42 13.9257143,42 L13.9257143,42 Z M18.7016398,48.2924815 C19.6893168,48.2924815 20.4899876,49.0883704 20.4899876,50.0699506 C20.4899876,51.0515309 19.6893168,51.8472593 18.7016398,51.8472593 C17.7139627,51.8472593 16.9131304,51.0515309 16.9131304,50.0699506 C16.9131304,49.0883704 17.7139627,48.2924815 18.7016398,48.2924815 L18.7016398,48.2924815 Z M9.11361491,48.2924815 C10.1012919,48.2924815 10.9021242,49.0883704 10.9021242,50.0699506 C10.9021242,51.0515309 10.1012919,51.8472593 9.11361491,51.8472593 C8.12593789,51.8472593 7.32510559,51.0515309 7.32510559,50.0699506 C7.32510559,49.0883704 8.12593789,48.2924815 9.11361491,48.2924815 L9.11361491,48.2924815 Z M13.9257143,63.0638519 C9.35891925,63.0638519 5.65674534,59.3845309 5.65674534,54.8459259 L7.32510559,56.6363951 L9.11361491,54.8523457 L10.7033292,56.6363951 L12.1937267,54.8523457 L13.9192547,56.6363951 L15.5717888,54.8523457 L17.1119255,56.6363951 L18.9002733,54.8523457 L20.4899876,56.6363951 L22.1948447,54.8459259 C22.1948447,59.3845309 18.4926708,63.0638519 13.9257143,63.0638519 L13.9257143,63.0638519 Z" id="Imported-Layers"></path>
                <g id="icon_linkedin" transform="translate(160.000000, 0.000000)">
                    <path d="M0,4.00187852 C0,1.79170204 1.79219474,0 4.00187852,0 L24.9981215,0 C27.208298,0 29,1.79219474 29,4.00187852 L29,24.9981215 C29,27.208298 27.2078053,29 24.9981215,29 L4.00187852,29 C1.79170204,29 0,27.2078053 0,24.9981215 L0,4.00187852 Z M9.76595041,23 L9.76595041,11.5296252 L6.21024793,11.5296252 L6.21024793,23 L9.76595041,23 Z M7.98809917,9.9638077 C9.2277686,9.9638077 10,9.08201643 10,7.98190385 C9.9768595,6.85698203 9.2277686,6 8.01190083,6 C6.7953719,6 6,6.85698203 6,7.98190385 C6,9.08272526 6.77157025,9.9638077 7.96495868,9.9638077 L7.98809917,9.9638077 Z M12,23 L15.9315386,23 L15.9315386,16.4526354 C15.9315386,16.1019743 15.9571202,15.7520377 16.0609088,15.502083 C16.3452308,14.8014852 16.9920819,14.0762543 18.0774759,14.0762543 C19.5005482,14.0762543 20.0691923,15.1514218 20.0691923,16.7272233 L20.0691923,22.9992755 L24,22.9992755 L24,16.2765803 C24,12.6757834 22.0609088,11 19.4742356,11 C17.353149,11 16.4227068,12.1751494 15.905226,12.975729 L15.9315386,12.975729 L15.9315386,11.2753124 L12,11.2753124 C12.0511634,12.3758377 12,23 12,23 Z" id="Rectangle-30"></path>
                </g>
            </g>
            <g id="sketch-diamond-copy" transform="translate(6.000000, 110.000000)" stroke="#FFFFFF">
                <path d="M34,61 L0,21.8344519 L14.7287449,2.04697987 L34,-7.10542736e-15 L53.2712551,2.04697987 L68,21.8344519 L34,61 L34,61 Z" id="Polygon" stroke-width="5.875"></path>
                <path d="M34,7.10542736e-15 L14,22 L54,22 L34,7.10542736e-15 L34,7.10542736e-15 Z" id="Polygon" stroke-width="2.875"></path>
                <path d="M14.8917197,2 L14,21.4168467 L34.2547771,60 L54,20.9157667 L53.2356688,2.12526998" id="Path-1214" stroke-width="2.875"></path>
                <path d="M0,22.4375 L67,22.4375" id="Path-1215" stroke-width="2.875"></path>
            </g>
            <g id="question-mark" transform="translate(85.000000, 81.000000)" fill="#0E7AFE">
                <path d="M31,81 C26.5888445,81 23,84.5888445 23,89 C23,93.4111555 26.5888445,97 31,97 C35.4111555,97 39,93.4111555 39,89 C39,84.5888445 35.4111555,81 31,81 L31,81 Z M31,93.0699388 C28.7559848,93.0699388 26.9300612,91.2440152 26.9300612,88.9998073 C26.9300612,86.7557921 28.7557921,84.9298685 31,84.9298685 C33.2442079,84.9298685 35.0699388,86.7557921 35.0699388,89 C35.0699388,91.2442079 33.2440152,93.0699388 31,93.0699388 L31,93.0699388 Z" id="Shape"></path>
                <path d="M31.5001,0 C14.1308673,0 7.10542736e-15,13.3744903 7.10542736e-15,29.8140073 C7.10542736e-15,34.1562391 3.7324517,37.6889054 8.32025274,37.6889054 C12.9080538,37.6889054 16.6405055,34.1562391 16.6405055,29.8140073 C16.6405055,22.0589537 23.3064694,15.7499854 31.4999,15.7499854 C39.6933306,15.7499854 46.3592945,22.0587644 46.3592945,29.813818 C46.3592945,37.5688716 39.6935306,43.8776506 31.5001,43.8776506 C26.912299,43.8776506 23.1798473,47.4103169 23.1798473,51.7525486 L23.1798473,70.1251019 C23.1798473,74.4673337 26.912299,78 31.5001,78 C36.0879011,78 39.8203528,74.467523 39.8203528,70.1251019 L39.8203528,58.5713766 C46.0960485,56.9389928 51.762838,53.4502505 55.9147629,48.6337528 C60.4837607,43.3335227 63,36.6496854 63,29.813818 C63.0002,13.3744903 48.8693327,0 31.5001,0 L31.5001,0 Z M37.3459207,55.1723756 C36.408357,55.3658686 35.7400403,56.1512 35.7400403,57.0592159 L35.7400403,70.1254806 C35.7400403,72.3381539 33.8379082,74.1384714 31.5001,74.1384714 C29.1622918,74.1384714 27.2601597,72.3381539 27.2601597,70.1254806 L27.2601597,51.752738 C27.2601597,49.5400647 29.1622918,47.7397472 31.5001,47.7397472 C41.9435235,47.7397472 50.439807,39.6982407 50.439807,29.8140073 C50.439807,19.929774 41.9435235,11.8878889 31.5001,11.8878889 C21.0566766,11.8878889 12.5603931,19.9295846 12.5603931,29.813818 C12.5603931,32.0264913 10.658261,33.8268088 8.32045278,33.8268088 C5.98264459,33.8268088 4.08051247,32.0264913 4.08051247,29.813818 C4.08051247,15.5038594 16.3808602,3.86190726 31.5001,3.86190726 C46.6193399,3.86190726 58.9196876,15.5038594 58.9196876,29.8136287 C58.9196876,41.9287108 49.8465034,52.5937318 37.3459207,55.1723756 L37.3459207,55.1723756 Z" id="Shape"></path>
            </g>
            <g id="megaphone" transform="translate(285.000000, 81.000000)" fill="#0E7AFE">
                <path d="M92.8237091,32.0581951 L92.8237091,9.21183799 C92.8237091,5.94705824 91.0767273,2.99473157 88.1502545,1.31884681 C86.6666182,0.46847731 85.0253455,0.0299777997 83.3748,0.00334827473 C81.7372364,-0.0392589652 80.0885455,0.324677875 78.5770909,1.1004847 L74.1818182,3.35511781 L74.1818182,3.40127566 L42.2595273,19.7731076 C39.9506182,20.9572338 38.2945091,22.9633247 37.5805091,25.296071 L13.4194909,26.7092112 C10.3669091,26.9169215 7.95229091,29.2052853 7.58694545,32.0493186 L5.95494545,32.0493186 C2.67054545,32.0475433 0,34.605753 0,37.7480369 L0,47.6506696 C0,50.7947288 2.67054545,53.3511632 5.95494545,53.3511632 L7.59621818,53.3511632 C7.99865455,56.5023237 10.6747636,59.0374544 14.0722909,59.2700189 L14.9328,59.3197274 L14.9328,90.0111425 C14.9328,94.4156659 18.6771273,98 23.2782545,98 C27.8793818,98 31.6237091,94.4156659 31.6237091,90.0111425 L31.6237091,60.2925927 L37.6287273,60.6423271 C38.3890909,62.9981524 40.1082545,64.9935915 42.5024727,66.1368858 L74.1818182,81.2997373 L74.1818182,81.3458951 L78.8163273,83.5650222 C80.1831273,84.2201085 81.6537818,84.5449887 83.1207273,84.5449887 C83.1355636,84.5449887 83.1504,84.5414381 83.1652364,84.5414381 C83.1819273,84.5414381 83.2004727,84.5449887 83.2171636,84.5449887 C84.966,84.5449887 86.7111273,84.081635 88.2652364,83.163804 C91.1193818,81.4754921 92.8237091,78.5480197 92.8237091,75.336499 L92.8237091,53.3422867 C97.8903273,53.2925783 102,49.3389815 102,44.4746549 L102,40.9240516 C102,36.0615003 97.8903273,32.1079035 92.8237091,32.0581951 L92.8237091,32.0581951 Z M27.9146182,90.0129178 C27.9146182,92.4610588 25.8356727,94.451172 23.2782545,94.451172 C20.7208364,94.451172 18.6418909,92.4610588 18.6418909,90.0129178 L18.6418909,88.8589717 L22.3509818,88.8589717 C23.3765455,88.8589717 24.2055273,88.0654119 24.2055273,87.0836701 C24.2055273,86.1019283 23.3765455,85.3083684 22.3509818,85.3083684 L18.6418909,85.3083684 L18.6418909,81.7577651 L22.3509818,81.7577651 C23.3765455,81.7577651 24.2055273,80.9642053 24.2055273,79.9824634 C24.2055273,79.0007216 23.3765455,78.2071618 22.3509818,78.2071618 L18.6418909,78.2071618 L18.6418909,74.6565585 L22.3509818,74.6565585 C23.3765455,74.6565585 24.2055273,73.8629986 24.2055273,72.8812568 C24.2055273,71.899515 23.3765455,71.1059551 22.3509818,71.1059551 L18.6418909,71.1059551 L18.6418909,67.5553518 L22.3509818,67.5553518 C23.3765455,67.5553518 24.2055273,66.761792 24.2055273,65.7800501 C24.2055273,64.7983083 23.3765455,64.0047485 22.3509818,64.0047485 L18.6418909,64.0047485 L18.6418909,59.5451907 L27.9146182,60.0955342 L27.9146182,90.0129178 L27.9146182,90.0129178 Z M80.5725818,80.3890075 L77.8909091,79.1054644 L77.8909091,5.52986235 L80.4223636,4.23211683 C81.2049818,3.83089866 82.0469455,3.63739078 82.8944727,3.59300823 C83.0131636,3.58945763 83.1281455,3.5557269 83.2468364,3.5575022 C83.2579636,3.5575022 83.2672364,3.5592775 83.2783636,3.5592775 C84.2705455,3.58590703 85.2571636,3.85397758 86.1473455,4.36526446 C87.9462545,5.39493942 89.0181818,7.20574712 89.0181818,9.21183799 L89.0181818,32.0475433 L89.0181818,53.3511632 L89.0181818,75.3347237 C89.0181818,77.3070838 87.9722182,79.1036891 86.2178182,80.1404653 C85.3517455,80.6535275 84.3892364,80.9322498 83.4156,80.980183 C82.4493818,81.0121384 81.4757455,80.8204058 80.5725818,80.3890075 L80.5725818,80.3890075 Z M7.41818182,49.8005599 L5.95494545,49.8005599 C4.71610909,49.8005599 3.70909091,48.8365711 3.70909091,47.6524449 L3.70909091,37.7498122 C3.70909091,36.5639107 4.71610909,35.5999219 5.95494545,35.5999219 L7.41818182,35.5999219 L7.41818182,49.8005599 L7.41818182,49.8005599 Z M11.2237091,52.5469516 L11.2237091,32.7807429 C11.2237091,31.4563678 12.3049091,30.345029 13.6642909,30.250938 L37.1873455,28.8768545 L37.1873455,57.0579931 L14.3170909,55.7282921 C12.5812364,55.6093469 11.2237091,54.2121845 11.2237091,52.5469516 L11.2237091,52.5469516 Z M44.1604364,62.9608711 C42.1464,61.9986576 40.8964364,60.0618035 40.8964364,57.9065873 L40.8964364,27.8862362 C40.8964364,25.7984814 42.0907636,23.8900321 44.0139273,22.9047397 L74.1818182,7.43121043 L74.1818182,77.3283875 L44.1604364,62.9608711 L44.1604364,62.9608711 Z M98.2909091,44.4746549 C98.2909091,47.3808237 95.8466182,49.7401996 92.8237091,49.7916834 L92.8237091,35.6070231 C95.8466182,35.6585068 98.2909091,38.0196581 98.2909091,40.9240516 L98.2909091,44.4746549 L98.2909091,44.4746549 Z" id="Shape"></path>
                <path d="M107.180517,30.7563506 C106.626112,29.9510858 105.533044,29.7582507 104.742537,30.3260428 C103.953779,30.8938349 103.763148,32.0062073 104.32105,32.8150432 C106.342789,35.7450644 107.413122,39.0179035 107.498818,42.5460705 C107.610748,46.997346 105.319677,50.7612002 104.328046,52.1717528 C103.764897,52.9734466 103.945035,54.0893901 104.728546,54.6643242 C105.038103,54.8910839 105.39488,55 105.746411,55 C106.292071,55 106.827237,54.7411011 107.168274,54.2554425 C108.366277,52.5502808 111.134801,47.9883038 110.994888,42.456795 C110.891702,38.2090677 109.608003,34.2738045 107.180517,30.7563506 L107.180517,30.7563506 Z" id="Shape"></path>
                <path d="M59.8042752,21.9904304 C59.3449227,21.1123244 58.2256025,20.7479281 57.2918982,21.1852036 L48.9466818,25.0975748 C46.5130509,26.3329669 45,28.7273168 45,31.3474146 L45,35.2224574 C45,36.2054385 45.838084,37 46.8749082,37 C47.9117324,37 48.7498164,36.2054385 48.7498164,35.2224574 L48.7498164,31.3474146 C48.7498164,30.0426983 49.5035295,28.8481897 50.6640977,28.2598231 L58.9568167,24.3723375 C59.8830213,23.9368395 60.2655026,22.870314 59.8042752,21.9904304 L59.8042752,21.9904304 Z" id="Shape"></path>
                <path d="M47,39 C45.894,39 45,39.78225 45,40.75 L45,44.25 C45,45.21775 45.894,46 47,46 C48.106,46 49,45.21775 49,44.25 L49,40.75 C49,39.784 48.106,39 47,39 L47,39 Z" id="Shape"></path>
            </g>
            <g id="cloud" transform="translate(152.000000, 81.024390)" fill="#0E7AFE">
                <path d="M99.3155136,32.9925361 C99.0539942,14.7873691 83.4379288,0.0531735192 64.2799747,0.0531735192 C55.757962,0.0531735192 47.5476199,3.00850174 41.1620429,8.37482927 C35.462924,13.1639443 31.5643509,19.5638904 30.0204318,26.5904911 C29.907653,26.589325 29.7958528,26.5883921 29.6842973,26.5883921 C13.3166998,26.5886253 0,39.2833366 0,54.8869659 C0,70.4905951 13.3166998,83.1853064 29.6845419,83.1853064 L40.5793119,83.1853064 C42.0542427,83.1853064 43.2505292,82.0453408 43.2505292,80.6388079 C43.2505292,79.232275 42.0542427,78.0923094 40.5793119,78.0923094 L29.6845419,78.0923094 C16.2621579,78.0923094 5.3424347,67.6824269 5.3424347,54.8869659 C5.3424347,42.0915048 16.2621579,31.6816223 29.6845419,31.6816223 C30.3996228,31.6816223 31.1555585,31.7182374 31.9958947,31.7935666 C33.4201852,31.9195038 34.6989152,30.9549175 34.8929142,29.6022578 C35.8548363,22.8809384 39.3358099,16.6990504 44.6948801,12.1953933 C50.1041014,7.64952381 57.0594435,5.1461705 64.27973,5.1461705 C80.6546667,5.1461705 93.9762593,17.8460125 93.9762593,33.4561719 C93.9762593,34.0182253 93.8664162,35.4716348 93.8664162,35.4716348 C93.810883,36.2207285 94.1049396,36.9551294 94.6705458,37.4782355 C95.2354181,38.0013417 96.0131267,38.2592799 96.7981745,38.1848836 C97.5086072,38.116551 98.2254006,38.0822681 98.9284942,38.0822681 C110.499203,38.0822681 119.913171,47.0564655 119.913171,58.0871721 C119.913171,69.1176455 110.499447,78.091843 98.9284942,78.091843 L86.9651394,78.091843 C85.4902086,78.091843 84.293922,79.2318086 84.293922,80.6383415 C84.293922,82.0448743 85.4902086,83.18484 86.9651394,83.18484 L98.9284942,83.18484 C113.44515,83.18484 125.255605,71.9262801 125.255605,58.0871721 C125.255361,44.3721357 113.654561,33.1907707 99.3155136,32.9925361 L99.3155136,32.9925361 Z" id="Shape"></path>
                <path d="M64.2802193,12.0218797 C53.1104747,12.0218797 43.5489893,19.9794834 42.039075,30.5316283 C41.839694,31.925101 42.8637544,33.2047638 44.3247407,33.3990337 C45.8826043,33.6061305 47.1498363,32.4967164 47.3325819,31.2200855 C48.4828762,23.17899 55.7687261,17.1151099 64.2802193,17.1151099 C65.7556394,17.1151099 66.9514366,15.9751443 66.9514366,14.5686114 C66.9514366,13.1618453 65.7553947,12.0218797 64.2802193,12.0218797 L64.2802193,12.0218797 Z" id="Shape"></path>
                <path d="M76.6403791,84.9570574 C75.6576628,83.9085129 73.9689172,83.817325 72.8685292,84.7546249 L66.443076,90.2265998 L66.443076,58.8983015 C66.443076,57.4917686 65.2467895,56.351803 63.7718587,56.351803 C62.2964386,56.351803 61.1006413,57.4917686 61.1006413,58.8983015 L61.1006413,90.2263666 L54.6754327,84.7543916 C53.5755341,83.817325 51.8862992,83.9085129 50.9038275,84.9568242 C49.9208665,86.0058351 50.0157865,87.6152669 51.1161745,88.5525668 L60.8325166,96.8278123 C61.6704064,97.5416901 62.7208879,97.8982792 63.771614,97.8982792 C64.8220955,97.8982792 65.8728216,97.5414569 66.7104669,96.8280455 L76.4272982,88.5528 C77.5279308,87.6159666 77.6230955,86.0060683 76.6403791,84.9570574 L76.6403791,84.9570574 Z" id="Shape"></path>
            </g>
            <g id="business" transform="translate(126.000000, 207.000000)">
                <path d="M128.765571,32.0237628 L112.258175,25.8201299 L128.813813,19.6356039 C129.828926,19.2565228 130.501521,18.2833439 130.499997,17.1967974 C130.498474,16.1102509 129.823086,15.1391101 128.806957,14.7628313 L89.3653153,0.160563182 C88.7846339,-0.0541985334 88.146824,-0.0534342568 87.5674122,0.162346494 L65.494159,8.38774568 L43.5290695,0.19903177 C42.9494038,-0.0175132581 42.3113399,-0.017768017 41.7309125,0.196993699 L2.28952451,14.7992618 C1.27339569,15.1755406 0.598261619,16.1461719 0.596484282,17.2329732 C0.594706946,18.3195197 1.26730196,19.2926985 2.28241516,19.6720345 L18.6905343,25.8045896 L2.19100927,31.928483 C1.17437264,32.3060356 0.499492476,33.2789597 0.500000286,34.3665253 C0.500508097,35.4540908 1.17589607,36.4265054 2.19304051,36.803039 L23.541902,44.7069325 L23.541902,72.7997011 C23.541902,73.8872666 24.2167821,74.8596812 25.2334188,75.2367243 L64.5953344,89.8387376 C64.8865638,89.9467554 65.1907423,90 65.4931434,90 C65.7985914,90 66.102516,89.9442078 66.3901907,89.8377186 L66.3912063,89.8389924 L105.753122,75.2367243 C106.769759,74.8596812 107.444639,73.8872666 107.444639,72.7997011 L107.444639,44.7836149 L128.752875,36.8947522 C129.767989,36.5187281 130.443377,35.5491159 130.445916,34.4635884 C130.448709,33.3778062 129.778907,32.4046273 128.765571,32.0237628 L128.765571,32.0237628 Z M88.1922584,5 L120.5,17.0621901 L104.739013,23 L72.5,10.8973302 L88.1922584,5 L88.1922584,5 Z M10.5,17.0877165 L42.2062194,5 L57.5,10.8711989 L25.8612273,23 L10.5,17.0877165 L10.5,17.0877165 Z M25.9142826,29 L57.5,41.1199306 L42.1495676,47 L10.5,34.9055829 L25.9142826,29 Z M62.5,83 L28.5,70.4778259 L28.5,46.4168865 L41.3436643,51.1379537 C41.6313184,51.2436155 41.9333677,51.2964463 42.2354171,51.2964463 C42.5379716,51.2964463 42.8407786,51.2433639 43.1289377,51.137199 L62.5,44 L62.5,83 L62.5,83 Z M65.5002546,38 L33.5,26.0709242 L62.649745,15.1890495 L62.649745,24.7252912 C62.649745,26.1682668 63.8125065,27.3379146 65.2464177,27.3379146 C66.6803289,27.3379146 67.8430904,26.1682668 67.8430904,24.7252912 L67.8430904,15 L97.5,26.0709242 L65.5002546,38 L65.5002546,38 Z M102.5,70.4727349 L102.5,70.4727349 L68.5,83 L68.5,44 L87.8206614,51.2110738 C88.1118489,51.319547 88.4176843,51.3741611 88.7240247,51.3741611 C89.0258193,51.3741611 89.328119,51.3213087 89.6157709,51.215604 L102.5,46.4777685 L102.5,70.4727349 L102.5,70.4727349 Z M88.169449,47 L72.5,41.0733129 L104.765655,29 L120.5,34.9518156 L88.169449,47 L88.169449,47 Z" id="Shape" fill="#3179F7"></path>
                <path d="M63,31.7272484 L63,32.2727516 C63,33.7790356 64.1194725,35 65.5,35 C66.8805275,35 68,33.7790356 68,32.2727516 L68,31.7272484 C68,30.2209644 66.8805275,29 65.5,29 C64.1194725,29 63,30.2209644 63,31.7272484 Z" id="Shape" fill="#0E7AFE"></path>
            </g>
            <g id="visibility" transform="translate(285.000000, 202.000000)" fill="#0E7AFE">
                <path d="M88.4541313,43.4624351 C87.6750251,42.4526324 86.234148,42.2731035 85.2350147,43.0601082 C84.2362569,43.8476822 84.058095,45.3044094 84.8370135,46.3142121 C85.6026027,47.3067451 85.6026027,48.6926856 84.8370135,49.6852186 C79.226698,56.9565192 71.9676812,62.420385 63.7955144,65.7238309 C68.0907361,61.074867 70.7207358,54.8408867 70.7207358,47.9996204 C70.7207358,41.1853025 68.1127013,34.9737159 63.8540881,30.3346204 C68.5762226,32.2540236 73.0152505,34.8919221 76.9892552,38.1856894 C77.4824388,38.594279 77.9741205,39.0180507 78.451722,39.4454282 C79.4001665,40.2943001 80.8494917,40.205105 81.6892368,39.246542 C82.5289818,38.2879791 82.4407457,36.8225221 81.492489,35.97384 C80.9718959,35.5075582 80.4351574,35.0454516 79.8974803,34.6000453 C70.0938839,26.4747487 57.7000879,22 44.9999061,22 C27.9078183,22 12.0694343,29.8227922 1.5458687,43.4626249 C-0.515289568,46.1341139 -0.515289568,49.8656964 1.5458687,52.5373751 C12.0694343,66.1772078 27.9078183,74 44.9999061,74 C62.0916185,74 77.9301902,66.1772078 88.4541313,52.5373751 C90.5152896,49.8653168 90.5152896,46.1339241 88.4541313,43.4624351 L88.4541313,43.4624351 Z M5.16298651,49.6852186 C4.39739735,48.6926856 4.39739735,47.3067451 5.16298651,46.3142121 C10.7719878,39.0442399 18.0295028,33.5811333 26.2001677,30.2773078 C21.9094516,34.9239944 19.2790765,41.1555075 19.2790765,47.9996204 C19.2790765,54.8412662 21.9092639,61.0752465 26.19998,65.7221229 C18.0295028,62.4182974 10.7718001,56.9551908 5.16298651,49.6852186 L5.16298651,49.6852186 Z M45.0278789,69.3622329 C45.0186798,69.3622329 45.0094807,69.3624227 45.0000939,69.3624227 C44.990707,69.3624227 44.9816957,69.3622329 44.9723089,69.3622329 C33.331336,69.3470508 23.8662284,59.7705306 23.8662284,47.9996204 C23.8662284,36.2287103 33.3311483,26.6521901 44.9723089,26.6370079 C44.981508,26.6370079 44.990707,26.6368182 45.0000939,26.6368182 C45.0072279,26.6368182 45.0143618,26.6370079 45.0214958,26.6370079 C56.6652847,26.6485843 66.1337716,36.226433 66.1337716,47.9996204 C66.1337716,59.7705306 56.6688517,69.3470508 45.0278789,69.3622329 L45.0278789,69.3622329 Z" id="Shape"></path>
                <path d="M45,38 C39.4855324,38 35,42.4855324 35,48 C35,53.5144676 39.4855324,58 45,58 C50.5144676,58 55,53.5144676 55,48 C55,42.4855324 50.5144676,38 45,38 L45,38 Z M45,53.2866512 C42.0856481,53.2866512 39.7133488,50.9143519 39.7133488,48 C39.7133488,45.0856481 42.0856481,42.7133488 45,42.7133488 C47.9143519,42.7133488 50.2866512,45.0856481 50.2866512,48 C50.2866512,50.9143519 47.9143519,53.2866512 45,53.2866512 L45,53.2866512 Z" id="Shape"></path>
                <path d="M45,0 C43.8953098,0 43,0.934246302 43,2.0869788 L43,9.9130212 C43,11.0657537 43.8953098,12 45,12 C46.1046902,12 47,11.0657537 47,9.9130212 L47,2.0869788 C47,0.934246302 46.1045265,0 45,0 L45,0 Z" id="Shape"></path>
                <path d="M45,84 C43.8953098,84 43,84.9342463 43,86.0869788 L43,93.9130212 C43,95.0657537 43.8953098,96 45,96 C46.1046902,96 47,95.0657537 47,93.9130212 L47,86.0869788 C47,84.9342463 46.1043628,84 45,84 L45,84 Z" id="Shape"></path>
                <path d="M79.3181252,13.6817243 C78.4089905,12.7727586 76.9352433,12.7727586 76.0255369,13.6817243 L71.681851,18.0255137 C70.7727163,18.9346701 70.7727163,20.4086429 71.681851,21.3181804 C72.1365136,21.7726633 72.7319959,22 73.3280499,22 C73.9237227,22 74.5193955,21.7726633 74.9742487,21.3181804 L79.3183157,16.974391 C80.2272599,16.0652347 80.2272599,14.5912618 79.3181252,13.6817243 L79.3181252,13.6817243 Z" id="Shape"></path>
                <path d="M19.3181252,74.6816583 C18.409181,73.7728758 16.9352433,73.7726853 16.025918,74.6816583 L11.681851,79.0254822 C10.7727163,79.9346457 10.7727163,81.4086303 11.681851,82.318175 C12.1365136,82.7726615 12.732377,83 13.3280499,83 C13.9237227,83 14.5193955,82.7726615 14.9742487,82.318175 L19.3183157,77.9743511 C20.2272599,77.064997 20.2272599,75.591203 19.3181252,74.6816583 L19.3181252,74.6816583 Z" id="Shape"></path>
                <path d="M19.3181858,18.0257043 L14.9740498,13.6817243 C14.0649007,12.7727586 12.5909395,12.7727586 11.6817904,13.6817243 C10.7726413,14.5912618 10.7728318,16.0650441 11.6817904,16.974391 L16.0259264,21.3181804 C16.4804057,21.7726633 17.0764691,22 17.6721514,22 C18.2678336,22 18.8638971,21.7726633 19.3183763,21.3181804 C20.2273349,20.4086429 20.2271444,18.9348606 19.3181858,18.0257043 L19.3181858,18.0257043 Z" id="Shape"></path>
                <path d="M79.3179931,79.0255137 L74.9743761,74.6817243 C74.0648748,73.7727586 72.5913416,73.7727586 71.6818402,74.6817243 C70.7727199,75.5912618 70.7727199,77.0650441 71.6818402,77.974391 L76.0258382,82.3181804 C76.4804936,82.7726633 77.0763476,83 77.6720109,83 C78.2676743,83 78.8633377,82.7726633 79.3181836,82.3181804 C80.2273039,81.4086429 80.2273039,79.9346701 79.3179931,79.0255137 L79.3179931,79.0255137 Z" id="Shape"></path>
            </g>
            <g id="coding" transform="translate(9.000000, 302.000000)" fill="#0E7AFE">
                <path d="M7.725,0 C3.43340039,0 0,3.42768201 0,7.71213389 L0,59.9833305 L0,67.6954644 C0,71.9799163 3.70840039,75 8,75 L41,75 L38.11,85.6904435 L37.7665996,85.6904435 C32.96,85.6904435 29.1831992,89.4607531 29.1831992,94.2595481 C29.1831992,95.2878326 29.8697988,95.9732887 30.8997988,95.9732887 L72.0997988,95.9732887 C73.1297988,95.9732887 73.8163984,95.2878326 73.8163984,94.2595481 C73.8163984,89.460954 70.0397988,85.6904435 65.232998,85.6904435 L64.8895977,85.6904435 L62,75 L95,75 C99.2915996,75 103,71.9799163 103,67.6954644 L103,59.9833305 L103,7.71213389 C103,3.42748117 99.5665996,0 95.275,0 L7.725,0 Z M9,4 L94,4 C96.3344946,4 98,5.66958859 98,8 L98,58.0000005 L4,58.0000005 L4,8.00000004 C4,5.66939355 6.66570078,4.213841 9,4 Z M34,93 C34.6642681,91.0103204 35.8409827,89.173667 38.0000001,89 L65.0000001,89 C67.1590174,89.173667 68.3357319,91.0103204 69,93 L34,93 Z M43,85 L44.9999999,76 L57.0000001,76 L60,85 L43,85 Z M93.9845524,71 L59.8303719,71 L43.1698293,71 L9,71 C6.66744985,71 4,69.0998828 4,67 L4,65 C4,63.907846 4,62 4,62 L28,62 L51.5,62 L98,62 L98,67 C98.1496384,69.1000586 96.3169074,71 93.9845524,71 Z" id="Shape"></path>
                <path d="M86.2353549,50 L59.7646451,50 C58.7058167,50 58,50.7999531 58,52 C58,53.2000469 58.7058167,54 59.7646451,54 L86.2353549,54 C87.2941833,54 88,53.2000469 88,52 C88,50.7999531 87.2941833,50 86.2353549,50 L86.2353549,50 Z" id="Shape"></path>
                <path d="M36,40.5 C36,39.5999648 35.3000684,39 34.2500684,39 L16.7499316,39 C15.6999316,39 15,39.5999648 15,40.5 C15,41.4000352 15.6999316,42 16.7499316,42 L34.2498633,42 C35.3000684,42 36,41.4000352 36,40.5 L36,40.5 Z" id="Shape"></path>
                <path d="M51.7058236,44 L77.2941764,44 C78.3177106,44 79,43.2000469 79,42 C79,40.7999531 78.3177106,40 77.2941764,40 L51.7058236,40 C50.6822894,40 50,40.7999531 50,42 C50,43.2000469 50.6822894,44 51.7058236,44 L51.7058236,44 Z" id="Shape"></path>
                <path d="M51.2941764,50 L25.7058236,50 C24.6822894,50 24,50.7999063 24,51.9998828 C24,53.1998594 24.6822894,54 25.7058236,54 L51.2941764,54 C52.3177106,54 53,53.2000937 53,52.0001172 C53,50.8001406 52.3177106,50 51.2941764,50 L51.2941764,50 Z" id="Shape"></path>
                <path d="M57.0726243,19 C56.0490902,19 55.3668008,19.7999531 55.3668008,21 C55.3668008,22.2000469 56.0490902,23 57.0726243,23 L82.6609772,23 C83.6845113,23 84.3668008,22.2000469 84.3668008,21 C84.3668008,19.7999531 83.6845113,19 82.6609772,19 L57.0726243,19 Z" id="Shape"></path>
                <path d="M86.2500513,29 L68.7499487,29 C67.6999385,29 67,29.7999531 67,31 C67,32.2000469 67.6999385,33 68.7499487,33 L86.2500513,33 C87.3000615,33 88,32.2000469 88,31 C88,29.8001875 87.3000615,29 86.2500513,29 L86.2500513,29 Z" id="Shape"></path>
                <path d="M51.7499487,33 L55.2500513,33 C56.3000615,33 57,32.2000469 57,31 C57,29.7999531 56.3000615,29 55.2500513,29 L51.7499487,29 C50.6999385,29 50,29.7999531 50,31 C50,32.2000469 50.6999385,33 51.7499487,33 L51.7499487,33 Z" id="Shape"></path>
                <path d="M51.7646451,12 L78.2353549,12 C79.2941833,12 80,11.4000352 80,10.5 C80,9.59996484 79.2941833,9 78.2353549,9 L51.7646451,9 C50.7058167,9 50,9.59996484 50,10.5 C50,11.4000352 50.7058167,12 51.7646451,12 L51.7646451,12 Z" id="Shape"></path>
                <path d="M15,9 L15,36 L42,36 L42,9 L15,9 Z M18,32.993372 L18,12 L39.0333996,12 L39.0334004,32.9933724 L18,32.993372 Z" id="Shape"></path>
                <path d="M35,31 L35,15 L31,15 L31,22.552 L23.6455696,15 L22,15 L22,31 L26,31 L26,23.4266667 L33.3338608,31 L35,31 Z" id="N"></path>
            </g>
            <g id="log-1" transform="translate(6.000000, 203.000000)" fill="#3179F7">
                <g id="Group">
                    <path d="M24.4832598,59.9856585 C25.5227715,59.9856585 26.3665195,59.1464634 26.3665195,58.112561 C26.3665195,56.7414878 26.8675156,55.4226585 27.7770332,54.3979756 C28.4645234,53.622439 28.3910293,52.4386098 27.6112852,51.7548293 C26.831541,51.0673171 25.6395234,51.1441463 24.9537988,51.9196829 C23.4358027,53.6279268 22.5995586,55.8272195 22.5995586,58.1123415 C22.6,59.1464634 23.443748,59.9856585 24.4832598,59.9856585 L24.4832598,59.9856585 Z" id="Shape"></path>
                    <path d="M21.5980078,73.8340244 C21.1140059,74.7480732 21.4680137,75.8814146 22.3909941,76.3628049 C25.3384844,77.9024634 28.6682324,78.7172927 32.0167402,78.7172927 C33.056252,78.7172927 33.9,77.8780976 33.9,76.8441951 C33.9,75.8102927 33.056252,74.9710976 32.0167402,74.9710976 C29.2747246,74.9710976 26.5532344,74.3061951 24.1407285,73.0455366 C23.2215,72.5641463 22.0820098,72.918 21.5980078,73.8340244 L21.5980078,73.8340244 Z" id="Shape"></path>
                    <path d="M38.4105098,62.4957805 C37.7192676,61.7165122 36.531002,61.6453902 35.7512578,62.3291707 C33.6852559,64.1405854 30.3385137,64.1386098 28.274498,62.3234634 C27.4947539,61.6379268 26.304502,61.7110244 25.6152461,62.4863415 C24.9259902,63.261878 24.9994844,64.4437317 25.7809941,65.1312439 C27.5022578,66.6447805 29.7172344,67.4782683 32.0167402,67.4782683 C34.3107285,67.4782683 36.5217324,66.6485122 38.2429961,65.1387073 C39.0227402,64.4551463 39.098,63.2713171 38.4105098,62.4957805 L38.4105098,62.4957805 Z" id="Shape"></path>
                    <path d="M30.1332598,50.6199512 C30.1332598,51.6538537 30.9770078,52.4930488 32.0165195,52.4930488 C35.1315234,52.4930488 37.6665195,55.0143659 37.6665195,58.112561 C37.6665195,59.1464634 38.5102676,59.9856585 39.5497793,59.9856585 C40.589291,59.9856585 41.4330391,59.1464634 41.4330391,58.112561 C41.4330391,52.9483171 37.2087812,48.7466341 32.0162988,48.7466341 C30.9770078,48.7466341 30.1332598,49.5858293 30.1332598,50.6199512 L30.1332598,50.6199512 Z" id="Shape"></path>
                    <path d="M32.0167402,37.5076098 C29.91675,37.5076098 27.8452305,37.8204146 25.8562539,38.4328537 C24.863752,38.7399512 24.3100078,39.7909756 24.6170059,40.778122 C24.8692695,41.5817561 25.6132598,42.0967317 26.4155156,42.0967317 C26.6020098,42.0967317 26.7902695,42.0686341 26.9747773,42.0104634 C28.6000352,41.508439 30.2950352,41.2538049 32.0165195,41.2538049 C33.0560312,41.2538049 33.8997793,40.4146098 33.8997793,39.3807073 C33.8997793,38.3468049 33.056252,37.5076098 32.0167402,37.5076098 L32.0167402,37.5076098 Z" id="Shape"></path>
                    <path d="M62.6152422,67.4782683 L73.45,67.4782683 C74.4895117,67.4782683 75.3332598,66.6390732 75.3332598,65.6051707 C75.3332598,64.5712683 74.4895117,63.7320732 73.45,63.7320732 L63.5040137,63.7320732 C63.8335234,61.9037561 64.0332598,60.0326341 64.0332598,58.112561 C64.0332598,52.0491951 62.3287695,46.2422195 59.1930195,41.2540244 L69.6832598,41.2540244 C70.7227715,41.2540244 71.5665195,40.4148293 71.5665195,39.3809268 C71.5665195,38.3470244 70.7227715,37.5078293 69.6832598,37.5078293 L56.3775098,37.5078293 C55.0685195,35.981122 53.6372598,34.5389268 52.0289961,33.2539024 C51.2192363,32.6096341 50.03075,32.7369512 49.381,33.5443171 C48.73125,34.3516829 48.8612441,35.5317805 49.6729902,36.1780244 C56.4059805,41.5466341 60.2667402,49.5412683 60.2667402,58.1127805 C60.2667402,73.6057317 47.5937461,86.2103415 32.0167402,86.2103415 C16.4397344,86.2103415 3.76674023,73.6057317 3.76674023,58.1127805 C3.76674023,42.6198293 16.4397344,30.0152195 32.0167402,30.0152195 L58.3834805,30.0152195 C59.0482383,30.0152195 59.6642207,29.6668537 60.0032207,29.097439 C60.3422207,28.5297805 60.3554629,27.8255854 60.037209,27.2449756 L49.5169531,8.06378049 L54.3702148,4.44490244 L70.1677031,21.9029268 C70.8607109,22.671 72.0547148,22.7326829 72.8269551,22.041439 C73.6009609,21.3501951 73.6631992,20.1663659 72.9662187,19.3965366 L56.0162188,0.664902439 C55.3644824,-0.0544390244 54.2667051,-0.164853659 53.4869609,0.419487805 L45.9537012,6.039 C45.2041934,6.59721951 44.9819453,7.61619512 45.4301934,8.4347561 L55.2104316,26.2692439 L32.0167402,26.2692439 C14.3622559,26.2685854 0,40.5533415 0,58.112561 C0,75.6717805 14.3622559,89.9565366 32.0167402,89.9565366 C46.3940039,89.9565366 58.5847617,80.4799756 62.6152422,67.4782683 L62.6152422,67.4782683 Z" id="Shape"></path>
                    <path d="M38.759,77.481 C38.9830137,77.481 39.211,77.4417073 39.433248,77.355439 C47.3884922,74.322878 52.7332598,66.5883659 52.7332598,58.1123415 C52.7332598,57.078439 51.8895117,56.2392439 50.85,56.2392439 C49.8104883,56.2392439 48.9667402,57.078439 48.9667402,58.1123415 C48.9667402,65.0487073 44.5937285,71.3763659 38.084752,73.8581707 C37.1147617,74.2291463 36.6289941,75.3117805 36.9999961,76.2782927 C37.2880137,77.0239756 38.0019883,77.481 38.759,77.481 L38.759,77.481 Z" id="Shape"></path>
                    <path d="M80.9832598,26.2685854 L65.9165195,26.2685854 C64.8770078,26.2685854 64.0332598,27.1077805 64.0332598,28.1416829 C64.0332598,29.1755854 64.8770078,30.0147805 65.9165195,30.0147805 L80.9832598,30.0147805 C95.9255234,30.0147805 108.161746,41.6190732 109.137254,56.2392439 L103.58326,56.2392439 C102.543748,56.2392439 101.7,57.078439 101.7,58.1123415 C101.7,59.1462439 102.543748,59.985439 103.58326,59.985439 L109.137254,59.985439 C108.764266,65.5900244 106.73799,70.7373659 103.530512,74.970878 L92.2832598,74.970878 C91.243748,74.970878 90.4,75.8100732 90.4,76.8439756 C90.4,77.877878 91.243748,78.7170732 92.2832598,78.7170732 L100.125504,78.7170732 C95.085748,83.3514146 88.3715176,86.2096829 80.9832598,86.2096829 L52.7332598,86.2096829 C51.693748,86.2096829 50.85,87.048878 50.85,88.0827805 C50.85,89.1166829 51.693748,89.955878 52.7332598,89.955878 L80.9832598,89.955878 C98.6375234,89.955878 113,75.671122 113,58.1119024 C113,40.5526829 98.6377441,26.2685854 80.9832598,26.2685854 L80.9832598,26.2685854 Z" id="Shape"></path>
                    <path d="M96.05,41.2540244 L84.75,41.2540244 C83.7104883,41.2540244 82.8667402,42.0932195 82.8667402,43.127122 C82.8667402,44.1610244 83.7104883,45.0002195 84.75,45.0002195 L96.05,45.0002195 C97.0895117,45.0002195 97.9332598,44.1610244 97.9332598,43.127122 C97.9332598,42.0932195 97.0895117,41.2540244 96.05,41.2540244 L96.05,41.2540244 Z" id="Shape"></path>
                    <path d="M40.3147363,39.2272683 C39.3637266,38.8115122 38.2524863,39.2441707 37.8344746,40.1920244 C37.4164629,41.139878 37.8514687,42.2431463 38.8044648,42.6589024 C43.3169609,44.6237561 46.7447012,48.4300976 48.2059766,53.1 C48.4564746,53.9016585 49.2022305,54.4168537 50.0027207,54.4168537 C50.1892148,54.4168537 50.3774746,54.3887561 50.5639688,54.3305854 C51.5564707,54.0234878 52.1119805,52.9724634 51.8012305,51.9853171 C50.0157422,46.2777805 45.8272383,41.6285122 40.3147363,39.2272683 L40.3147363,39.2272683 Z" id="Shape"></path>
                    <path d="M96.05,56.2392439 L92.2832598,56.2392439 C91.243748,56.2392439 90.4,57.078439 90.4,58.1123415 C90.4,59.1462439 91.243748,59.985439 92.2832598,59.985439 L96.05,59.985439 C97.0895117,59.985439 97.9332598,59.1462439 97.9332598,58.1123415 C97.9332598,57.078439 97.0895117,56.2392439 96.05,56.2392439 L96.05,56.2392439 Z" id="Shape"></path>
                    <path d="M62.15,78.7175122 C61.1104883,78.7175122 60.2667402,79.5567073 60.2667402,80.5906098 C60.2667402,81.6245122 61.1104883,82.4637073 62.15,82.4637073 L69.6832598,82.4637073 C70.7227715,82.4637073 71.5665195,81.6245122 71.5665195,80.5906098 C71.5665195,79.5567073 70.7227715,78.7175122 69.6832598,78.7175122 L62.15,78.7175122 L62.15,78.7175122 Z" id="Shape"></path>
                    <path d="M19.9670117,43.5935854 C19.2250078,42.8667805 18.0347559,42.8687561 17.3020215,43.6047805 C13.4319922,47.4897073 11.3,52.6429756 11.3,58.112561 C11.3,62.613878 12.7332461,66.8901951 15.4452461,70.4792195 C15.8144824,70.9680732 16.3794824,71.2266585 16.9519863,71.2266585 C17.3455,71.2266585 17.7429863,71.1030732 18.0819863,70.8501951 C18.9144785,70.2300732 19.0802266,69.0556829 18.4549746,68.2276829 C16.2382324,65.2943415 15.0667402,61.7970732 15.0667402,58.112561 C15.0667402,53.6356098 16.8107363,49.4209756 19.9784883,46.2441951 C20.711002,45.5079512 20.7052637,44.3221463 19.9670117,43.5935854 L19.9670117,43.5935854 Z" id="Shape"></path>
                    <path d="M67.8,50.6199512 C67.8,51.6538537 68.643748,52.4930488 69.6832598,52.4930488 L73.45,52.4930488 C74.4895117,52.4930488 75.3332598,51.6538537 75.3332598,50.6199512 C75.3332598,49.5860488 74.4895117,48.7468537 73.45,48.7468537 L69.6832598,48.7468537 C68.643748,48.7466341 67.8,49.5858293 67.8,50.6199512 L67.8,50.6199512 Z" id="Shape"></path>
                </g>
            </g>
        </g>
    </g>
</svg>