<?xml version="1.0" encoding="utf-8"?>
<!-- Generator: Adobe Illustrator 22.1.0, SVG Export Plug-In . SVG Version: 6.00 Build 0)  -->
<svg version="1.1" id="Layer_1" xmlns="http://www.w3.org/2000/svg" xmlns:xlink="http://www.w3.org/1999/xlink" x="0px" y="0px"
	 viewBox="0 0 400 400" style="enable-background:new 0 0 400 400;" xml:space="preserve">
<style type="text/css">
	.st0{fill:#0E7AFE;}
	.st1{fill:none;stroke:#FFFFFF;stroke-width:5.875;}
	.st2{fill:none;stroke:#FFFFFF;stroke-width:2.875;}
	.st3{fill:#3179F7;}
</style>
<g id="Page-1">
	<g id="sprites">
		<g id="icons-social" transform="translate(6.000000, 6.000000)">
			<path id="icon_twitter" class="st0" d="M70,6.1c-1.2,0.5-2.4,0.9-3.8,1c1.4-0.8,2.4-2.1,2.9-3.6c-1.3,0.8-2.7,1.3-4.2,1.6
				C63.7,3.8,62,3,60.2,3c-3.6,0-6.6,2.9-6.6,6.6c0,0.5,0.1,1,0.2,1.5c-5.5-0.3-10.3-2.9-13.5-6.9c-0.6,1-0.9,2.1-0.9,3.3
				c0,2.3,1.2,4.3,2.9,5.5c-1.1,0-2.1-0.3-3-0.8v0.1c0,3.2,2.3,5.8,5.3,6.4c-0.6,0.2-1.1,0.2-1.7,0.2c-0.4,0-0.8,0-1.2-0.1
				c0.8,2.6,3.3,4.5,6.1,4.6c-2.2,1.8-5.1,2.8-8.2,2.8c-0.5,0-1.1,0-1.6-0.1C40.9,28,44.4,29,48.1,29c12.1,0,18.7-10,18.7-18.7
				c0-0.3,0-0.6,0-0.8C68,8.6,69.1,7.4,70,6.1L70,6.1z"/>
			<g id="icon_github" transform="translate(77.000000, 2.000000)">
				<path id="Shape" class="st0" d="M33.6,13.2v-0.1c-2.8-0.6-5.6-0.6-7.3-0.5c0.3-1,0.4-2.2,0.4-3.5c0-1.9-0.7-3.4-1.8-4.5
					C25,4,25.3,2.5,24.5,0.7c0,0-1.3-0.4-4.2,1.5C19.2,2,18,1.8,16.7,1.8S14,2,12.7,2.3c-3-2.1-4.3-1.6-4.3-1.6
					C7.6,2.9,8.1,4.5,8.3,4.9C7.3,6,6.6,7.4,6.6,9.1c0,1.3,0.1,2.5,0.5,3.5c-1.7-0.1-4.5-1-7.1-0.5v0.1c2.7-0.5,5.4,0.4,7.2,0.5
					c0.1,0.2,0.2,0.4,0.3,0.6c-1.7,0.1-4.6-0.7-7.4,0.1v0.1c2.8-0.8,5.7,0,7.4-0.1c1,1.9,3,3.1,6.6,3.5c-0.5,0.3-1,0.9-1.2,1.9
					c-0.7,0.3-2.9,1.1-4.2-1.1c0,0-0.7-1.3-2.1-1.4c0,0-1.4,0-0.1,0.8c0,0,0.9,0.4,1.5,2c0,0,0.8,2.8,4.8,1.9v2.8c0,0-0.1,1-1,1.3
					c0,0-0.5,0.4,0,0.6c0,0,2.6,0.2,2.6-1.9v-3.1c0,0-0.1-1.2,0.5-1.7v5.1c0,0,0,1.2-0.7,1.7c0,0-0.4,0.8,0.5,0.5
					c0,0,1.8-0.3,1.8-2.3v-5.2H17V24c0.1,2.1,1.8,2.3,1.8,2.3c0.9,0.2,0.5-0.5,0.5-0.5c-0.6-0.5-0.7-1.7-0.7-1.7v-5
					c0.6,0.5,0.5,1.6,0.5,1.6v3.1c0,2.1,2.6,1.9,2.6,1.9c0.6-0.2,0-0.6,0-0.6c-0.9-0.3-1-1.3-1-1.3v-4.1c0-1.6-0.7-2.4-1.3-2.9
					c3.8-0.4,5.6-1.6,6.5-3.5c1.7,0,4.7,0.2,7.5,1.1v-0.1c-2.9-0.8-5.8-1-7.5-1.1c0.1-0.2,0.1-0.4,0.2-0.6
					C27.9,12.7,30.8,12.7,33.6,13.2L33.6,13.2z M6.9,16.8c-0.2,0-0.3-0.1-0.3-0.2s0.1-0.2,0.3-0.2s0.3,0.1,0.3,0.2
					C7.2,16.7,7,16.8,6.9,16.8L6.9,16.8z M7.4,17c0-0.1,0.1-0.2,0.3-0.2C7.9,16.8,8,16.9,8,17s-0.1,0.2-0.3,0.2
					C7.5,17.2,7.4,17.2,7.4,17L7.4,17z M7.8,17.6c0-0.1,0.1-0.2,0.3-0.2c0.2,0,0.3,0.1,0.3,0.2s-0.1,0.2-0.3,0.2
					C8,17.8,7.8,17.7,7.8,17.6L7.8,17.6z M8.5,18.4c-0.2,0-0.3-0.1-0.3-0.2S8.3,18,8.5,18c0.1,0,0.3,0.1,0.3,0.2S8.7,18.4,8.5,18.4
					L8.5,18.4z M9,19c-0.2,0-0.3-0.1-0.3-0.2s0.1-0.2,0.3-0.2c0.1,0,0.3,0.1,0.3,0.2S9.1,19,9,19L9,19z M9.6,19.5
					c-0.2,0-0.3-0.1-0.3-0.2s0.1-0.2,0.3-0.2c0.1,0,0.3,0.1,0.3,0.2C9.9,19.4,9.8,19.5,9.6,19.5L9.6,19.5z M10.5,19.8
					c-0.1,0-0.3-0.1-0.3-0.2s0.1-0.2,0.3-0.2s0.3,0.1,0.3,0.2C10.8,19.8,10.6,19.8,10.5,19.8L10.5,19.8z M11.4,19.8
					c-0.2,0-0.3-0.1-0.3-0.2s0.1-0.2,0.3-0.2c0.1,0,0.3,0.1,0.3,0.2C11.6,19.8,11.5,19.8,11.4,19.8L11.4,19.8z M12.3,19.7
					c-0.1,0-0.3-0.1-0.3-0.2s0.1-0.2,0.3-0.2s0.3,0.1,0.3,0.2C12.5,19.6,12.4,19.7,12.3,19.7L12.3,19.7z M16.7,16.3
					c-4.1,0-7.5-0.6-7.5-4.6c0-1,0.5-1.8,1.3-2.6c1.3-1.2,3.6-0.6,6.2-0.6s4.9-0.7,6.2,0.6c0.8,0.7,1.3,1.6,1.3,2.6
					C24.2,16.1,20.9,16.3,16.7,16.3L16.7,16.3z"/>
				<ellipse id="Oval" class="st0" cx="12.7" cy="11.9" rx="1" ry="1.5"/>
				<ellipse id="Oval_1_" class="st0" cx="21" cy="11.9" rx="1" ry="1.5"/>
				<circle id="Oval_2_" class="st0" cx="16.7" cy="13.9" r="0.4"/>
				<path id="Shape_1_" class="st0" d="M17.6,14.7c-0.1,0-0.1,0-0.2,0.1c-0.1,0.3-0.4,0.5-0.7,0.5s-0.6-0.2-0.7-0.5
					c0-0.1-0.1-0.1-0.2-0.1c-0.1,0-0.1,0.1-0.1,0.2c0.1,0.4,0.5,0.6,0.9,0.6s0.8-0.3,0.9-0.6C17.7,14.8,17.6,14.7,17.6,14.7
					L17.6,14.7z"/>
			</g>
			<path id="icon_dribbble" class="st0" d="M134,29c-7.7,0-14-7.3-14-15s6.3-13,14-13s14,6.3,14,14S141.7,29,134,29L134,29z
				 M145.8,16.9c-0.4-0.1-3.7-1.1-7.4-0.5c1.6,4.3,2.2,7.8,2.3,8.5C143.4,23.1,145.3,20.2,145.8,16.9L145.8,16.9z M138.7,26
				c-0.2-1-0.9-4.7-2.6-9.1H136c-6.7,2.3-9.2,7-9.4,7.5c2,1.6,4.6,2.5,7.3,2.5C135.7,27,137.2,26.6,138.7,26L138.7,26z M125.1,23
				c0.3-0.5,3.6-5.9,9.7-7.9c0.2,0,0.3-0.1,0.5-0.1c-0.3-0.7-0.6-1.4-1-2c-6,1.8-11.8,1.7-12.3,1.7c0,0.1,0,0.2,0,0.4
				C122,18.1,123.2,20.9,125.1,23L125.1,23z M122.3,12.6c0.5,0,5.5,0,11.1-1.5c-2-3.5-4.1-6.5-4.4-6.9
				C125.6,5.8,123.1,8.9,122.3,12.6L122.3,12.6z M131.2,3.4c0.3,0.4,2.5,3.4,4.5,7c4.3-1.6,6.1-4,6.3-4.3c-2.1-1.9-4.9-3-7.9-3
				C133,3.1,132.1,3.2,131.2,3.4L131.2,3.4z M143.3,7.5c-0.3,0.3-2.3,2.9-6.7,4.7c0.3,0.6,0.5,1.1,0.8,1.7c0.1,0.2,0.2,0.4,0.3,0.6
				c4-0.5,7.9,0.3,8.3,0.4C145.9,12.1,144.9,9.5,143.3,7.5L143.3,7.5z"/>
			<path id="icon_home" class="st0" d="M27.9,13.7L14.3,0.1c-0.2-0.2-0.5-0.2-0.7,0L0.1,13.7c-0.2,0.2-0.2,0.5,0,0.7
				c0.1,0.1,0.2,0.1,0.3,0.1l0,0h3.3v13.1c0,0.1,0.1,0.2,0.1,0.3C4,27.9,4.1,28,4.2,28h6.5c0.3,0,0.5-0.2,0.5-0.5v-9.3h5.6v9.3
				c0,0.3,0.2,0.5,0.5,0.5h6.5c0.3,0,0.5-0.2,0.5-0.5v-13h3.3c0.1,0,0.2,0,0.3-0.1C28,14.1,28.1,13.8,27.9,13.7L27.9,13.7z"/>
			<g id="icon_artstation" transform="translate(42.000000, 44.000000)">
				<path id="Fill-1-Copy-2" class="st0" d="M0,17.5l2.1,4l0,0C2.5,22.4,3.3,23,4.2,23h13.6L15,17.5H0"/>
				<path id="Fill-2-Copy" class="st0" d="M25,17.8c0-0.5-0.1-1-0.4-1.4l-8.2-15C16,0.6,15.1,0,14.2,0H9.8l12.7,23l2-3.6
					C24.9,18.7,25,18.4,25,17.8"/>
				<path id="Fill-3-Copy" class="st0" d="M13.4,13.8L7.6,3.7L1.8,13.8H13.4"/>
			</g>
			<path id="Imported-Layers" class="st0" d="M13.9,42C6.8,42,1,47.8,1,54.8s5.8,12.8,12.9,12.8s12.9-5.8,12.9-12.8S21.1,42,13.9,42
				L13.9,42z M18.7,48.3c1,0,1.8,0.8,1.8,1.8s-0.8,1.8-1.8,1.8s-1.8-0.8-1.8-1.8C16.9,49.1,17.7,48.3,18.7,48.3L18.7,48.3z
				 M9.1,48.3c1,0,1.8,0.8,1.8,1.8s-0.8,1.8-1.8,1.8s-1.8-0.8-1.8-1.8S8.1,48.3,9.1,48.3L9.1,48.3z M13.9,63.1
				c-4.6,0-8.3-3.7-8.3-8.2l1.7,1.8l1.8-1.8l1.6,1.8l1.5-1.8l1.7,1.8l1.7-1.8l1.5,1.8l1.8-1.8l1.6,1.8l1.7-1.8
				C22.2,59.4,18.5,63.1,13.9,63.1L13.9,63.1z"/>
			<g id="icon_linkedin" transform="translate(160.000000, 0.000000)">
				<path id="Rectangle-30" class="st0" d="M0,4c0-2.2,1.8-4,4-4h21c2.2,0,4,1.8,4,4v21c0,2.2-1.8,4-4,4H4c-2.2,0-4-1.8-4-4V4z
					 M9.8,23V11.5H6.2V23H9.8z M8,10c1.2,0,2-0.9,2-2S9.2,6,8,6S6,6.9,6,8S6.8,10,8,10L8,10z M12,23h3.9v-6.5c0-0.4,0-0.7,0.1-1
					c0.3-0.7,0.9-1.4,2-1.4c1.4,0,2,1.1,2,2.7V23h4v-6.7c0-3.6-1.9-5.3-4.5-5.3c-2.1,0-3.1,1.2-3.6,2l0,0v-1.7H12
					C12.1,12.4,12,23,12,23z"/>
			</g>
		</g>
		<g id="sketch-diamond-copy" transform="translate(6.000000, 110.000000)">
			<path id="Polygon" class="st1" d="M34,61L0,21.8L14.7,2L34,0l19.3,2L68,21.8L34,61L34,61z"/>
			<path id="Polygon_1_" class="st2" d="M34,0L14,22h40L34,0L34,0z"/>
			<path id="Path-1214" class="st2" d="M14.9,2L14,21.4L34.3,60L54,20.9L53.2,2.1"/>
			<path id="Path-1215" class="st2" d="M0,22.4h67"/>
		</g>
		<g id="question-mark" transform="translate(85.000000, 81.000000)">
			<path id="Shape_2_" class="st0" d="M31,81c-4.4,0-8,3.6-8,8s3.6,8,8,8s8-3.6,8-8S35.4,81,31,81L31,81z M31,93.1
				c-2.2,0-4.1-1.8-4.1-4.1c0-2.2,1.8-4.1,4.1-4.1s4.1,1.8,4.1,4.1S33.2,93.1,31,93.1L31,93.1z"/>
			<path id="Shape_3_" class="st0" d="M31.5,0C14.1,0,0,13.4,0,29.8c0,4.3,3.7,7.9,8.3,7.9s8.3-3.5,8.3-7.9
				c0-7.8,6.7-14.1,14.9-14.1S46.4,22,46.4,29.8s-6.7,14.1-14.9,14.1c-4.6,0-8.3,3.5-8.3,7.9v18.4c0,4.3,3.7,7.9,8.3,7.9
				s8.3-3.5,8.3-7.9V58.6c6.3-1.6,11.9-5.1,16.1-9.9c4.6-5.3,7.1-12,7.1-18.8C63,13.4,48.9,0,31.5,0L31.5,0z M37.3,55.2
				c-0.9,0.2-1.6,1-1.6,1.9v13.1c0,2.2-1.9,4-4.2,4s-4.2-1.8-4.2-4V51.8c0-2.2,1.9-4,4.2-4c10.4,0,18.9-8,18.9-17.9S41.9,12,31.5,12
				s-18.9,8-18.9,17.9c0,2.2-1.9,4-4.2,4s-4.2-1.8-4.2-4c0-14.3,12.3-26,27.4-26S59,15.5,59,29.9C58.9,41.9,49.8,52.6,37.3,55.2
				L37.3,55.2z"/>
		</g>
		<g id="megaphone" transform="translate(285.000000, 81.000000)">
			<path id="Shape_4_" class="st0" d="M92.8,32.1V9.2c0-3.3-1.7-6.2-4.7-7.9C86.7,0.5,85,0,83.4,0s-3.3,0.3-4.8,1.1l-4.4,2.3l0,0
				L42.3,19.8c-2.3,1.2-4,3.2-4.7,5.5l-24.2,1.4c-3,0.2-5.4,2.5-5.8,5.3H6c-3.3,0-6,2.6-6,5.7v9.9c0,3.1,2.7,5.7,6,5.7h1.6
				c0.4,3.2,3.1,5.7,6.5,5.9H15V90c0,4.4,3.7,8,8.3,8s8.3-3.6,8.3-8V60.3l6,0.3c0.8,2.4,2.5,4.4,4.9,5.5l31.7,15.2l0,0l4.6,2.2
				c1.4,0.7,2.8,1,4.3,1l0,0c0,0,0,0,0.1,0c1.7,0,3.5-0.5,5-1.4c2.9-1.7,4.6-4.6,4.6-7.8v-22c5.1,0,9.2-4,9.2-8.9v-3.6
				C102,36.1,97.9,32.1,92.8,32.1L92.8,32.1z M27.9,90c0,2.4-2.1,4.4-4.6,4.4s-4.6-2-4.6-4.4v-1.2h3.7c1,0,1.9-0.8,1.9-1.8
				s-0.8-1.8-1.9-1.8h-3.7v-3.6h3.7c1,0,1.9-0.8,1.9-1.8S23.5,78,22.4,78h-3.7v-3.6h3.7c1,0,1.9-0.8,1.9-1.8s-0.8-1.8-1.9-1.8h-3.7
				v-3.6h3.7c1,0,1.9-0.8,1.9-1.8S23.4,64,22.4,64h-3.7v-4.5l9.3,0.6V90H27.9z M80.6,80.4l-2.7-1.3V5.5l2.5-1.3
				c0.8-0.4,1.6-0.6,2.5-0.6c0.1,0,0.2,0,0.4,0l0,0c1,0,2,0.3,2.9,0.8c1.8,1,2.9,2.8,2.9,4.8V32v21.3v22c0,2-1,3.8-2.8,4.8
				c-0.9,0.5-1.8,0.8-2.8,0.8C82.4,81,81.5,80.8,80.6,80.4L80.6,80.4z M7.4,49.8H6c-1.2,0-2.2-1-2.2-2.1v-9.9c0-1.2,1-2.1,2.2-2.1
				h1.5L7.4,49.8L7.4,49.8z M11.2,52.5V32.8c0-1.3,1.1-2.4,2.4-2.5l23.5-1.4v28.2l-22.9-1.3C12.6,55.6,11.2,54.2,11.2,52.5
				L11.2,52.5z M44.2,63c-2-1-3.3-2.9-3.3-5.1v-30c0-2.1,1.2-4,3.1-5L74.2,7.4v69.9L44.2,63L44.2,63z M98.3,44.5
				c0,2.9-2.4,5.3-5.5,5.3V35.6c3,0.1,5.5,2.4,5.5,5.3V44.5L98.3,44.5z"/>
			<path id="Shape_5_" class="st0" d="M107.2,30.8c-0.6-0.8-1.6-1-2.4-0.4s-1,1.7-0.4,2.5c2,2.9,3.1,6.2,3.2,9.7
				c0.1,4.5-2.2,8.2-3.2,9.6c-0.6,0.8-0.4,1.9,0.4,2.5c0.3,0.2,0.7,0.3,1,0.3c0.5,0,1.1-0.3,1.4-0.7c1.2-1.7,4-6.3,3.8-11.8
				C110.9,38.2,109.6,34.3,107.2,30.8L107.2,30.8z"/>
			<path id="Shape_6_" class="st0" d="M59.8,22c-0.5-0.9-1.6-1.2-2.5-0.8L49,25.1c-2.4,1.2-3.9,3.6-3.9,6.2v3.9c0,1,0.8,1.8,1.9,1.8
				s1.9-0.8,1.9-1.8v-3.9c0-1.3,0.8-2.5,1.9-3.1l8.3-3.9C59.9,23.9,60.3,22.9,59.8,22L59.8,22z"/>
			<path id="Shape_7_" class="st0" d="M47,39c-1.1,0-2,0.8-2,1.8v3.5c0,1,0.9,1.8,2,1.8s2-0.8,2-1.8v-3.5C49,39.8,48.1,39,47,39
				L47,39z"/>
		</g>
		<g id="cloud" transform="translate(152.000000, 81.024390)">
			<path id="Shape_8_" class="st0" d="M99.3,33C99,14.8,83.4,0.1,64.3,0.1c-8.5,0-16.7,3-23.1,8.3c-5.7,4.8-9.6,11.2-11.1,18.2
				c-0.1,0-0.2,0-0.3,0C13.3,26.6,0,39.3,0,54.9s13.3,28.3,29.7,28.3h10.9c1.5,0,2.7-1.1,2.7-2.5s-1.2-2.5-2.7-2.5H29.7
				C16.3,78.2,5.4,67.8,5.4,55s10.9-23.2,24.3-23.2c0.7,0,1.5,0,2.3,0.1c1.4,0.1,2.7-0.8,2.9-2.2c1-6.7,4.4-12.9,9.8-17.4
				s12.4-7,19.6-7C80.7,5.1,94,17.8,94,33.5c0,0.6-0.1,2-0.1,2c-0.1,0.7,0.2,1.5,0.8,2c0.6,0.5,1.3,0.8,2.1,0.7
				c0.7-0.1,1.4-0.1,2.1-0.1c11.6,0,21,9,21,20s-9.4,20-21,20H87c-1.5,0-2.7,1.1-2.7,2.5s1.2,2.5,2.7,2.5h12
				c14.5,0,26.3-11.3,26.3-25.1C125.3,44.4,113.7,33.2,99.3,33L99.3,33z"/>
			<path id="Shape_9_" class="st0" d="M64.3,12C53.1,12,43.5,20,42,30.5c-0.2,1.4,0.8,2.7,2.3,2.9c1.6,0.2,2.8-0.9,3-2.2
				c1.2-8,8.4-14.1,16.9-14.1c1.5,0,2.7-1.1,2.7-2.5C67,13.2,65.8,12,64.3,12L64.3,12z"/>
			<path id="Shape_10_" class="st0" d="M76.6,85c-1-1-2.7-1.1-3.8-0.2l-6.4,5.5V58.9c0-1.4-1.2-2.5-2.7-2.5c-1.5,0-2.7,1.1-2.7,2.5
				v31.3l-6.4-5.5c-1.1-0.9-2.8-0.8-3.8,0.2s-0.9,2.7,0.2,3.6l9.7,8.3c0.8,0.7,1.9,1.1,2.9,1.1c1.1,0,2.1-0.4,2.9-1.1l9.7-8.3
				C77.5,87.6,77.6,86,76.6,85L76.6,85z"/>
		</g>
		<g id="business" transform="translate(126.000000, 207.000000)">
			<path id="Shape_11_" class="st3" d="M128.8,32l-16.5-6.2l16.6-6.2c1-0.4,1.7-1.4,1.7-2.4c0-1.1-0.7-2.1-1.7-2.4L89.4,0.2
				c-0.6-0.2-1.2-0.2-1.8,0L65.5,8.4l-22-8.2c-0.6-0.2-1.2-0.2-1.8,0L2.3,14.8c-1,0.4-1.7,1.3-1.7,2.4s0.7,2.1,1.7,2.4l16.4,6.1
				L2.2,31.9c-1,0.4-1.7,1.4-1.7,2.4c0,1.1,0.7,2.1,1.7,2.4l21.3,7.9v28.1c0,1.1,0.7,2.1,1.7,2.4l39.4,14.6c0.3,0.1,0.6,0.2,0.9,0.2
				s0.6-0.1,0.9-0.2l0,0l39.4-14.6c1-0.4,1.7-1.3,1.7-2.4v-28l21.3-7.9c1-0.4,1.7-1.3,1.7-2.4C130.4,33.4,129.8,32.4,128.8,32
				L128.8,32z M88.2,5l32.3,12.1L104.7,23L72.5,10.9L88.2,5L88.2,5z M10.5,17.1L42.2,5l15.3,5.9L25.9,23L10.5,17.1L10.5,17.1z
				 M25.9,29l31.6,12.1L42.1,47L10.5,34.9L25.9,29z M62.5,83l-34-12.5V46.4l12.8,4.7c0.3,0.1,0.6,0.2,0.9,0.2c0.3,0,0.6-0.1,0.9-0.2
				L62.5,44V83L62.5,83z M65.5,38l-32-11.9l29.1-10.9v9.5c0,1.4,1.2,2.6,2.6,2.6c1.4,0,2.6-1.2,2.6-2.6V15l29.7,11.1L65.5,38
				L65.5,38z M102.5,70.5L102.5,70.5L68.5,83V44l19.3,7.2c0.3,0.1,0.6,0.2,0.9,0.2s0.6-0.1,0.9-0.2l12.9-4.7L102.5,70.5L102.5,70.5z
				 M88.2,47l-15.7-5.9L104.8,29l15.7,6L88.2,47L88.2,47z"/>
			<path id="Shape_12_" class="st0" d="M63,31.7v0.5c0,1.5,1.1,2.7,2.5,2.7s2.5-1.2,2.5-2.7v-0.5c0-1.5-1.1-2.7-2.5-2.7
				S63,30.2,63,31.7z"/>
		</g>
		<g id="visibility" transform="translate(285.000000, 202.000000)">
			<path id="Shape_13_" class="st0" d="M88.5,43.5c-0.8-1-2.2-1.2-3.2-0.4s-1.2,2.2-0.4,3.3c0.8,1,0.8,2.4,0,3.4
				c-5.6,7.3-12.9,12.7-21,16c4.3-4.6,6.9-10.9,6.9-17.7s-2.6-13-6.9-17.7c4.7,1.9,9.2,4.6,13.1,7.9c0.5,0.4,1,0.8,1.5,1.3
				c0.9,0.8,2.4,0.8,3.2-0.2c0.8-1,0.8-2.4-0.2-3.3c-0.5-0.5-1.1-0.9-1.6-1.4C70.1,26.5,57.7,22,45,22c-17.1,0-32.9,7.8-43.5,21.5
				c-2.1,2.7-2.1,6.4,0,9.1C12.1,66.2,27.9,74,45,74s32.9-7.8,43.5-21.5C90.5,49.9,90.5,46.1,88.5,43.5L88.5,43.5z M5.2,49.7
				c-0.8-1-0.8-2.4,0-3.4c5.6-7.3,12.9-12.7,21-16c-4.3,4.6-6.9,10.9-6.9,17.7s2.6,13.1,6.9,17.7C18,62.4,10.8,57,5.2,49.7L5.2,49.7
				z M45,69.4L45,69.4L45,69.4c-11.7,0-21.2-9.6-21.2-21.4S33.3,26.7,45,26.6l0,0l0,0c11.6,0,21.1,9.6,21.1,21.4S56.7,69.3,45,69.4
				L45,69.4z"/>
			<path id="Shape_14_" class="st0" d="M45,38c-5.5,0-10,4.5-10,10s4.5,10,10,10s10-4.5,10-10S50.5,38,45,38L45,38z M45,53.3
				c-2.9,0-5.3-2.4-5.3-5.3s2.4-5.3,5.3-5.3s5.3,2.4,5.3,5.3S47.9,53.3,45,53.3L45,53.3z"/>
			<path id="Shape_15_" class="st0" d="M45,0c-1.1,0-2,0.9-2,2.1v7.8c0,1.2,0.9,2.1,2,2.1s2-0.9,2-2.1V2.1C47,0.9,46.1,0,45,0L45,0z
				"/>
			<path id="Shape_16_" class="st0" d="M45,84c-1.1,0-2,0.9-2,2.1v7.8c0,1.2,0.9,2.1,2,2.1s2-0.9,2-2.1v-7.8C47,84.9,46.1,84,45,84
				L45,84z"/>
			<path id="Shape_17_" class="st0" d="M79.3,13.7c-0.9-0.9-2.4-0.9-3.3,0L71.7,18c-0.9,0.9-0.9,2.4,0,3.3c0.5,0.5,1.1,0.7,1.6,0.7
				c0.6,0,1.2-0.2,1.6-0.7l4.3-4.3C80.2,16.1,80.2,14.6,79.3,13.7L79.3,13.7z"/>
			<path id="Shape_18_" class="st0" d="M19.3,74.7c-0.9-0.9-2.4-0.9-3.3,0L11.7,79c-0.9,0.9-0.9,2.4,0,3.3c0.5,0.5,1.1,0.7,1.6,0.7
				s1.2-0.2,1.6-0.7l4.3-4.3C20.2,77.1,20.2,75.6,19.3,74.7L19.3,74.7z"/>
			<path id="Shape_19_" class="st0" d="M19.3,18L15,13.7c-0.9-0.9-2.4-0.9-3.3,0c-0.9,0.9-0.9,2.4,0,3.3l4.3,4.3
				c0.5,0.5,1.1,0.7,1.6,0.7s1.2-0.2,1.6-0.7C20.2,20.4,20.2,18.9,19.3,18L19.3,18z"/>
			<path id="Shape_20_" class="st0" d="M79.3,79L75,74.7c-0.9-0.9-2.4-0.9-3.3,0s-0.9,2.4,0,3.3l4.3,4.3c0.5,0.5,1.1,0.7,1.6,0.7
				s1.2-0.2,1.6-0.7C80.2,81.4,80.2,79.9,79.3,79L79.3,79z"/>
		</g>
		<g id="coding" transform="translate(9.000000, 302.000000)">
			<path id="Shape_21_" class="st0" d="M7.7,0C3.4,0,0,3.4,0,7.7V60v7.7C0,72,3.7,75,8,75h33l-2.9,10.7h-0.3c-4.8,0-8.6,3.8-8.6,8.6
				c0,1,0.7,1.7,1.7,1.7h41.2c1,0,1.7-0.7,1.7-1.7c0-4.8-3.8-8.6-8.6-8.6h-0.3L62,75h33c4.3,0,8-3,8-7.3V60V7.7
				c0-4.3-3.4-7.7-7.7-7.7H7.7z M9,4h85c2.3,0,4,1.7,4,4v50H4V8C4,5.7,6.7,4.2,9,4z M34,93c0.7-2,1.8-3.8,4-4h27c2.2,0.2,3.3,2,4,4
				H34z M43,85l2-9h12l3,9H43z M94,71H59.8H43.2H9c-2.3,0-5-1.9-5-4v-2c0-1.1,0-3,0-3h24h23.5H98v5C98.1,69.1,96.3,71,94,71z"/>
			<path id="Shape_22_" class="st0" d="M86.2,50H59.8c-1.1,0-1.8,0.8-1.8,2s0.7,2,1.8,2h26.5c1.1,0,1.8-0.8,1.8-2S87.3,50,86.2,50
				L86.2,50z"/>
			<path id="Shape_23_" class="st0" d="M36,40.5c0-0.9-0.7-1.5-1.7-1.5H16.7c-1.1,0-1.7,0.6-1.7,1.5s0.7,1.5,1.7,1.5h17.5
				C35.3,42,36,41.4,36,40.5L36,40.5z"/>
			<path id="Shape_24_" class="st0" d="M51.7,44h25.6c1,0,1.7-0.8,1.7-2s-0.7-2-1.7-2H51.7c-1,0-1.7,0.8-1.7,2S50.7,44,51.7,44
				L51.7,44z"/>
			<path id="Shape_25_" class="st0" d="M51.3,50H25.7c-1,0-1.7,0.8-1.7,2s0.7,2,1.7,2h25.6c1,0,1.7-0.8,1.7-2
				C53,50.8,52.3,50,51.3,50L51.3,50z"/>
			<path id="Shape_26_" class="st0" d="M57.1,19c-1,0-1.7,0.8-1.7,2s0.7,2,1.7,2h25.6c1,0,1.7-0.8,1.7-2s-0.7-2-1.7-2H57.1z"/>
			<path id="Shape_27_" class="st0" d="M86.3,29H68.7c-1.1,0-1.7,0.8-1.7,2s0.7,2,1.7,2h17.5c1.1,0,1.7-0.8,1.7-2
				C88,29.8,87.3,29,86.3,29L86.3,29z"/>
			<path id="Shape_28_" class="st0" d="M51.7,33h3.5c1.1,0,1.7-0.8,1.7-2s-0.7-2-1.7-2h-3.5c-1.1,0-1.7,0.8-1.7,2S50.7,33,51.7,33
				L51.7,33z"/>
			<path id="Shape_29_" class="st0" d="M51.8,12h26.5c1.1,0,1.8-0.6,1.8-1.5S79.3,9,78.2,9H51.8C50.7,9,50,9.6,50,10.5
				S50.7,12,51.8,12L51.8,12z"/>
			<path id="Shape_30_" class="st0" d="M15,9v27h27V9H15z M18,33V12h21v21H18z"/>
			<path id="N" class="st0" d="M35,31V15h-4v7.6L23.6,15H22v16h4v-7.6l7.3,7.6H35z"/>
		</g>
		<g id="log-1" transform="translate(6.000000, 203.000000)">
			<g id="Group">
				<path id="Shape_31_" class="st3" d="M24.5,60c1,0,1.9-0.8,1.9-1.9c0-1.4,0.5-2.7,1.4-3.7c0.7-0.8,0.6-2-0.2-2.6
					c-0.8-0.7-2-0.6-2.7,0.2c-1.5,1.7-2.4,3.9-2.4,6.2C22.6,59.1,23.4,60,24.5,60L24.5,60z"/>
				<path id="Shape_32_" class="st3" d="M21.6,73.8c-0.5,0.9-0.1,2,0.8,2.5c2.9,1.5,6.3,2.4,9.6,2.4c1,0,1.9-0.8,1.9-1.9
					c0-1-0.8-1.9-1.9-1.9c-2.7,0-5.5-0.7-7.9-1.9C23.2,72.6,22.1,72.9,21.6,73.8L21.6,73.8z"/>
				<path id="Shape_33_" class="st3" d="M38.4,62.5c-0.7-0.8-1.9-0.9-2.7-0.2c-2.1,1.8-5.4,1.8-7.5,0c-0.8-0.7-2-0.6-2.7,0.2
					s-0.6,2,0.2,2.6c1.7,1.5,3.9,2.3,6.2,2.3s4.5-0.8,6.2-2.3C39,64.5,39.1,63.3,38.4,62.5L38.4,62.5z"/>
				<path id="Shape_34_" class="st3" d="M30.1,50.6c0,1,0.8,1.9,1.9,1.9c3.1,0,5.7,2.5,5.7,5.6c0,1,0.8,1.9,1.9,1.9
					c1,0,1.9-0.8,1.9-1.9c0-5.2-4.2-9.4-9.4-9.4C31,48.7,30.1,49.6,30.1,50.6L30.1,50.6z"/>
				<path id="Shape_35_" class="st3" d="M32,37.5c-2.1,0-4.2,0.3-6.2,0.9c-1,0.3-1.5,1.4-1.2,2.3c0.3,0.8,1,1.3,1.8,1.3
					c0.2,0,0.4,0,0.6-0.1c1.6-0.5,3.3-0.8,5-0.8c1,0,1.9-0.8,1.9-1.9S33.1,37.5,32,37.5L32,37.5z"/>
				<path id="Shape_36_" class="st3" d="M62.6,67.5h10.8c1,0,1.9-0.8,1.9-1.9s-0.8-1.9-1.9-1.9h-9.9c0.3-1.8,0.5-3.7,0.5-5.6
					c0-6.1-1.7-11.9-4.8-16.9h10.5c1,0,1.9-0.8,1.9-1.9c0-1-0.8-1.9-1.9-1.9H56.4c-1.3-1.5-2.7-3-4.3-4.3c-0.8-0.6-2-0.5-2.6,0.3
					s-0.5,2,0.3,2.6c6.7,5.4,10.6,13.4,10.6,21.9C60.4,73.4,47.7,86,32.2,86S3.8,73.6,3.8,58.1S16.4,30,32,30h26.4
					c0.7,0,1.3-0.3,1.6-0.9s0.4-1.3,0-1.9L49.5,8.1l4.9-3.6L70.2,22c0.7,0.8,1.9,0.8,2.7,0.1c0.8-0.7,0.8-1.9,0.1-2.6L56,0.7
					c-0.7-0.7-1.7-0.8-2.5-0.2L46,6c-0.7,0.6-1,1.6-0.5,2.4l9.8,17.8H32C14.3,26.2,0,40.5,0,58s14.4,32,32,32
					C46.4,90,58.6,80.5,62.6,67.5L62.6,67.5z"/>
				<path id="Shape_37_" class="st3" d="M38.8,77.5c0.2,0,0.5,0,0.7-0.1c8-3,13.3-10.8,13.3-19.2c0-1-0.8-1.9-1.9-1.9
					c-1,0-1.9,0.8-1.9,1.9c0,6.9-4.4,13.3-10.9,15.7c-1,0.4-1.5,1.5-1.1,2.4C37.3,77,38,77.5,38.8,77.5L38.8,77.5z"/>
				<path id="Shape_38_" class="st3" d="M81,26.3H65.9c-1,0-1.9,0.8-1.9,1.9c0,1,0.8,1.9,1.9,1.9H81c14.9,0,27.2,11.6,28.2,26.2
					h-5.6c-1,0-1.9,0.8-1.9,1.9c0,1,0.8,1.9,1.9,1.9h5.6c-0.4,5.6-2.4,10.8-5.6,15H92.3c-1,0-1.9,0.8-1.9,1.9c0,1,0.8,1.9,1.9,1.9
					h7.8c-5,4.6-11.8,7.5-19.1,7.5H52.7c-1,0-1.9,0.8-1.9,1.9c0,1,0.8,1.9,1.9,1.9H81c17.7,0,32-14.3,32-31.8S98.6,26.3,81,26.3
					L81,26.3z"/>
				<path id="Shape_39_" class="st3" d="M96.1,41.3H84.8c-1,0-1.9,0.8-1.9,1.9c0,1,0.8,1.9,1.9,1.9h11.3c1,0,1.9-0.8,1.9-1.9
					C97.9,42.1,97.1,41.3,96.1,41.3L96.1,41.3z"/>
				<path id="Shape_40_" class="st3" d="M40.3,39.2c-1-0.4-2.1,0-2.5,1c-0.4,0.9,0,2.1,1,2.5c4.5,2,7.9,5.8,9.4,10.4
					c0.3,0.8,1,1.3,1.8,1.3c0.2,0,0.4,0,0.6-0.1c1-0.3,1.5-1.4,1.2-2.3C50,46.3,45.8,41.6,40.3,39.2L40.3,39.2z"/>
				<path id="Shape_41_" class="st3" d="M96.1,56.2h-3.8c-1,0-1.9,0.8-1.9,1.9c0,1,0.8,1.9,1.9,1.9h3.8c1,0,1.9-0.8,1.9-1.9
					C97.9,57.1,97.1,56.2,96.1,56.2L96.1,56.2z"/>
				<path id="Shape_42_" class="st3" d="M62.2,78.7c-1,0-1.9,0.8-1.9,1.9c0,1,0.8,1.9,1.9,1.9h7.5c1,0,1.9-0.8,1.9-1.9
					c0-1-0.8-1.9-1.9-1.9H62.2L62.2,78.7z"/>
				<path id="Shape_43_" class="st3" d="M20,43.6c-0.7-0.7-1.9-0.7-2.7,0c-3.9,3.9-6,9-6,14.5c0,4.5,1.4,8.8,4.1,12.4
					c0.4,0.5,0.9,0.7,1.5,0.7c0.4,0,0.8-0.1,1.1-0.4c0.8-0.6,1-1.8,0.4-2.6c-2.2-2.9-3.4-6.4-3.4-10.1c0-4.5,1.7-8.7,4.9-11.9
					C20.7,45.5,20.7,44.3,20,43.6L20,43.6z"/>
				<path id="Shape_44_" class="st3" d="M67.8,50.6c0,1,0.8,1.9,1.9,1.9h3.8c1,0,1.9-0.8,1.9-1.9c0-1-0.8-1.9-1.9-1.9h-3.8
					C68.6,48.7,67.8,49.6,67.8,50.6L67.8,50.6z"/>
			</g>
		</g>
		<path id="Shape_45_" class="st3" d="M148,321L148,321v60c0,7.2,5.8,13,13,13h60c7.2,0,13-5.8,13-13v-60c0-7.2-5.8-13-13-13h-60
			C153.8,308,148,313.8,148,321L148,321z M143,321c0-9.9,8.1-18,18-18h60c9.9,0,18,8.1,18,18v60c0,9.9-8.1,18-18,18h-60
			c-9.9,0-18-8.1-18-18V321L143,321z"/>
		<path id="N_1_" class="st0" d="M183.7,376v-24.1h0.6l16.6,24.1H212v-49h-13.7v23.7h-0.6L181.2,327H170v49H183.7z"/>
	</g>
</g>
<g>
	<g>
		<g>
			<path class="st0" d="M225.4,5.5h-10.9c-5,0-9.1,4.1-9.1,9.1v10.9c0,5,4.1,9.1,9.1,9.1h10.9c5,0,9.1-4.1,9.1-9.1V14.6
				C234.5,9.6,230.5,5.5,225.4,5.5z M231.9,25.4c0,3.5-2.8,6.3-6.3,6.3h-10.9c-3.5,0-6.3-2.8-6.3-6.3V14.6c0-3.5,2.8-6.3,6.3-6.3
				h10.9c3.5,0,6.3,2.8,6.3,6.3V25.4z"/>
		</g>
	</g>
	<g>
		<g>
			<path class="st0" d="M220,12.9c-3.9,0-7.1,3.2-7.1,7.1s3.2,7.1,7.1,7.1c3.9,0,7.1-3.2,7.1-7.1S223.9,12.9,220,12.9z M220,24.5
				c-2.5,0-4.5-2-4.5-4.5s2-4.5,4.5-4.5s4.5,2,4.5,4.5S222.5,24.5,220,24.5z"/>
		</g>
	</g>
	<g>
		<g>
			<circle class="st0" cx="227.8" cy="12.4" r="0.9"/>
		</g>
	</g>
</g>
</svg>
